G04 #@! TF.GenerationSoftware,KiCad,Pcbnew,5.1.8-db9833491~87~ubuntu20.04.1*
G04 #@! TF.CreationDate,2020-11-19T11:25:10+01:00*
G04 #@! TF.ProjectId,sally,73616c6c-792e-46b6-9963-61645f706362,v1.0*
G04 #@! TF.SameCoordinates,Original*
G04 #@! TF.FileFunction,Paste,Top*
G04 #@! TF.FilePolarity,Positive*
%FSLAX46Y46*%
G04 Gerber Fmt 4.6, Leading zero omitted, Abs format (unit mm)*
G04 Created by KiCad (PCBNEW 5.1.8-db9833491~87~ubuntu20.04.1) date 2020-11-19 11:25:10*
%MOMM*%
%LPD*%
G01*
G04 APERTURE LIST*
%ADD10R,0.450000X1.450000*%
%ADD11O,1.800000X0.800000*%
G04 APERTURE END LIST*
D10*
X152575000Y-92450000D03*
X153225000Y-92450000D03*
X153875000Y-92450000D03*
X154525000Y-92450000D03*
X155175000Y-92450000D03*
X155825000Y-92450000D03*
X156475000Y-92450000D03*
X157125000Y-92450000D03*
X157775000Y-92450000D03*
X158425000Y-92450000D03*
X158425000Y-86550000D03*
X157775000Y-86550000D03*
X157125000Y-86550000D03*
X156475000Y-86550000D03*
X155825000Y-86550000D03*
X155175000Y-86550000D03*
X154525000Y-86550000D03*
X153875000Y-86550000D03*
X153225000Y-86550000D03*
X152575000Y-86550000D03*
G36*
G01*
X160570000Y-96345000D02*
X160570000Y-98395000D01*
G75*
G02*
X160320000Y-98645000I-250000J0D01*
G01*
X158745000Y-98645000D01*
G75*
G02*
X158495000Y-98395000I0J250000D01*
G01*
X158495000Y-96345000D01*
G75*
G02*
X158745000Y-96095000I250000J0D01*
G01*
X160320000Y-96095000D01*
G75*
G02*
X160570000Y-96345000I0J-250000D01*
G01*
G37*
G36*
G01*
X154345000Y-96345000D02*
X154345000Y-98395000D01*
G75*
G02*
X154095000Y-98645000I-250000J0D01*
G01*
X152520000Y-98645000D01*
G75*
G02*
X152270000Y-98395000I0J250000D01*
G01*
X152270000Y-96345000D01*
G75*
G02*
X152520000Y-96095000I250000J0D01*
G01*
X154095000Y-96095000D01*
G75*
G02*
X154345000Y-96345000I0J-250000D01*
G01*
G37*
G36*
G01*
X156685000Y-94456250D02*
X156685000Y-93943750D01*
G75*
G02*
X156903750Y-93725000I218750J0D01*
G01*
X157341250Y-93725000D01*
G75*
G02*
X157560000Y-93943750I0J-218750D01*
G01*
X157560000Y-94456250D01*
G75*
G02*
X157341250Y-94675000I-218750J0D01*
G01*
X156903750Y-94675000D01*
G75*
G02*
X156685000Y-94456250I0J218750D01*
G01*
G37*
G36*
G01*
X158260000Y-94456250D02*
X158260000Y-93943750D01*
G75*
G02*
X158478750Y-93725000I218750J0D01*
G01*
X158916250Y-93725000D01*
G75*
G02*
X159135000Y-93943750I0J-218750D01*
G01*
X159135000Y-94456250D01*
G75*
G02*
X158916250Y-94675000I-218750J0D01*
G01*
X158478750Y-94675000D01*
G75*
G02*
X158260000Y-94456250I0J218750D01*
G01*
G37*
G36*
G01*
X161000000Y-87343750D02*
X161000000Y-87856250D01*
G75*
G02*
X160781250Y-88075000I-218750J0D01*
G01*
X160343750Y-88075000D01*
G75*
G02*
X160125000Y-87856250I0J218750D01*
G01*
X160125000Y-87343750D01*
G75*
G02*
X160343750Y-87125000I218750J0D01*
G01*
X160781250Y-87125000D01*
G75*
G02*
X161000000Y-87343750I0J-218750D01*
G01*
G37*
G36*
G01*
X162575000Y-87343750D02*
X162575000Y-87856250D01*
G75*
G02*
X162356250Y-88075000I-218750J0D01*
G01*
X161918750Y-88075000D01*
G75*
G02*
X161700000Y-87856250I0J218750D01*
G01*
X161700000Y-87343750D01*
G75*
G02*
X161918750Y-87125000I218750J0D01*
G01*
X162356250Y-87125000D01*
G75*
G02*
X162575000Y-87343750I0J-218750D01*
G01*
G37*
G36*
G01*
X157635000Y-100243750D02*
X157635000Y-100756250D01*
G75*
G02*
X157416250Y-100975000I-218750J0D01*
G01*
X156978750Y-100975000D01*
G75*
G02*
X156760000Y-100756250I0J218750D01*
G01*
X156760000Y-100243750D01*
G75*
G02*
X156978750Y-100025000I218750J0D01*
G01*
X157416250Y-100025000D01*
G75*
G02*
X157635000Y-100243750I0J-218750D01*
G01*
G37*
G36*
G01*
X156060000Y-100243750D02*
X156060000Y-100756250D01*
G75*
G02*
X155841250Y-100975000I-218750J0D01*
G01*
X155403750Y-100975000D01*
G75*
G02*
X155185000Y-100756250I0J218750D01*
G01*
X155185000Y-100243750D01*
G75*
G02*
X155403750Y-100025000I218750J0D01*
G01*
X155841250Y-100025000D01*
G75*
G02*
X156060000Y-100243750I0J-218750D01*
G01*
G37*
G36*
G01*
X150275000Y-85006250D02*
X150275000Y-84493750D01*
G75*
G02*
X150493750Y-84275000I218750J0D01*
G01*
X150931250Y-84275000D01*
G75*
G02*
X151150000Y-84493750I0J-218750D01*
G01*
X151150000Y-85006250D01*
G75*
G02*
X150931250Y-85225000I-218750J0D01*
G01*
X150493750Y-85225000D01*
G75*
G02*
X150275000Y-85006250I0J218750D01*
G01*
G37*
G36*
G01*
X151850000Y-85006250D02*
X151850000Y-84493750D01*
G75*
G02*
X152068750Y-84275000I218750J0D01*
G01*
X152506250Y-84275000D01*
G75*
G02*
X152725000Y-84493750I0J-218750D01*
G01*
X152725000Y-85006250D01*
G75*
G02*
X152506250Y-85225000I-218750J0D01*
G01*
X152068750Y-85225000D01*
G75*
G02*
X151850000Y-85006250I0J218750D01*
G01*
G37*
G36*
G01*
X151850000Y-83531250D02*
X151850000Y-83018750D01*
G75*
G02*
X152068750Y-82800000I218750J0D01*
G01*
X152506250Y-82800000D01*
G75*
G02*
X152725000Y-83018750I0J-218750D01*
G01*
X152725000Y-83531250D01*
G75*
G02*
X152506250Y-83750000I-218750J0D01*
G01*
X152068750Y-83750000D01*
G75*
G02*
X151850000Y-83531250I0J218750D01*
G01*
G37*
G36*
G01*
X150275000Y-83531250D02*
X150275000Y-83018750D01*
G75*
G02*
X150493750Y-82800000I218750J0D01*
G01*
X150931250Y-82800000D01*
G75*
G02*
X151150000Y-83018750I0J-218750D01*
G01*
X151150000Y-83531250D01*
G75*
G02*
X150931250Y-83750000I-218750J0D01*
G01*
X150493750Y-83750000D01*
G75*
G02*
X150275000Y-83531250I0J218750D01*
G01*
G37*
D11*
X180050000Y-83610000D03*
X180050000Y-82110000D03*
X163950000Y-96485000D03*
X163950000Y-95215000D03*
X163950000Y-93945000D03*
X163950000Y-92675000D03*
X163950000Y-91405000D03*
X163950000Y-90135000D03*
X163950000Y-88865000D03*
X163950000Y-87595000D03*
X163950000Y-86325000D03*
X163950000Y-85055000D03*
X163950000Y-83785000D03*
X163950000Y-82515000D03*
M02*
