M48
; DRILL file {KiCad 5.1.8-db9833491~87~ubuntu20.04.1} date Thu Nov 19 11:25:08 2020
; FORMAT={-:-/ absolute / inch / decimal}
; #@! TF.CreationDate,2020-11-19T11:25:08+01:00
; #@! TF.GenerationSoftware,Kicad,Pcbnew,5.1.8-db9833491~87~ubuntu20.04.1
; #@! TF.FileFunction,Plated,1,2,PTH
FMAT,2
INCH
T1C0.0157
T2C0.0394
T3C0.0400
%
G90
G05
T1
X5.8898Y-3.3081
X6.0692Y-3.4751
X6.0922Y-3.8335
X6.1093Y-3.3583
X6.1093Y-3.4843
X6.1348Y-3.3386
X6.1348Y-3.5118
X6.1604Y-3.3583
X6.1604Y-3.5394
X6.1606Y-3.5913
X6.2295Y-3.9563
X6.28Y-3.449
X6.2894Y-3.7087
X6.3953Y-3.7984
X6.3957Y-3.248
X6.5157Y-3.6388
X6.5157Y-3.4488
X7.0295Y-3.2917
T2
X4.4291Y-3.4551
X4.4291Y-3.5551
X4.4291Y-3.6551
X4.4291Y-3.7551
X4.4291Y-3.8551
X4.4291Y-3.9551
X4.4291Y-4.0551
X4.4291Y-4.1551
X4.4291Y-4.2551
X4.4291Y-4.3551
X4.4291Y-4.4551
X4.4291Y-4.5551
X4.4291Y-4.6551
X4.5291Y-3.4551
X4.5291Y-3.5551
X4.5291Y-3.6551
X4.5291Y-3.7551
X4.5291Y-3.8551
X4.5291Y-3.9551
X4.5291Y-4.0551
X4.5291Y-4.1551
X4.5291Y-4.2551
X4.5291Y-4.3551
X4.5291Y-4.4551
X4.5291Y-4.5551
X4.5291Y-4.6551
X4.6291Y-3.2551
X4.6291Y-3.3551
X4.6291Y-3.4551
X4.6291Y-3.5551
X4.6291Y-3.6551
X4.6291Y-3.7551
X4.6291Y-3.8551
X4.6291Y-3.9551
X4.6291Y-4.0551
X4.6291Y-4.1551
X4.6291Y-4.2551
X4.6291Y-4.3551
X4.6291Y-4.4551
X4.6291Y-4.5551
X4.6291Y-4.6551
X4.6291Y-4.7551
X4.6291Y-4.8551
X4.7291Y-3.2551
X4.7291Y-3.3551
X4.7291Y-3.4551
X4.7291Y-3.5551
X4.7291Y-3.6551
X4.7291Y-3.7551
X4.7291Y-3.8551
X4.7291Y-3.9551
X4.7291Y-4.0551
X4.7291Y-4.1551
X4.7291Y-4.2551
X4.7291Y-4.3551
X4.7291Y-4.4551
X4.7291Y-4.5551
X4.7291Y-4.6551
X4.7291Y-4.7551
X4.7291Y-4.8551
X4.8291Y-3.2551
X4.8291Y-3.3551
X4.8291Y-3.4551
X4.8291Y-3.5551
X4.8291Y-3.6551
X4.8291Y-3.7551
X4.8291Y-3.8551
X4.8291Y-3.9551
X4.8291Y-4.0551
X4.8291Y-4.1551
X4.8291Y-4.2551
X4.8291Y-4.3551
X4.8291Y-4.4551
X4.8291Y-4.5551
X4.8291Y-4.6551
X4.8291Y-4.7551
X4.8291Y-4.8551
X4.9291Y-3.2551
X4.9291Y-3.3551
X4.9291Y-3.4551
X4.9291Y-3.5551
X4.9291Y-3.6551
X4.9291Y-3.7551
X4.9291Y-3.8551
X4.9291Y-3.9551
X4.9291Y-4.0551
X4.9291Y-4.1551
X4.9291Y-4.2551
X4.9291Y-4.3551
X4.9291Y-4.4551
X4.9291Y-4.5551
X4.9291Y-4.6551
X4.9291Y-4.7551
X4.9291Y-4.8551
X5.0291Y-3.2551
X5.0291Y-3.3551
X5.0291Y-3.4551
X5.0291Y-3.5551
X5.0291Y-3.6551
X5.0291Y-3.7551
X5.0291Y-3.8551
X5.0291Y-3.9551
X5.0291Y-4.0551
X5.0291Y-4.1551
X5.0291Y-4.2551
X5.0291Y-4.3551
X5.0291Y-4.4551
X5.0291Y-4.5551
X5.0291Y-4.6551
X5.0291Y-4.7551
X5.0291Y-4.8551
X5.1291Y-3.2551
X5.1291Y-3.3551
X5.1291Y-3.4551
X5.1291Y-3.5551
X5.1291Y-3.6551
X5.1291Y-3.7551
X5.1291Y-3.8551
X5.1291Y-3.9551
X5.1291Y-4.0551
X5.1291Y-4.1551
X5.1291Y-4.2551
X5.1291Y-4.3551
X5.1291Y-4.4551
X5.1291Y-4.5551
X5.1291Y-4.6551
X5.1291Y-4.7551
X5.1291Y-4.8551
X5.2291Y-3.2551
X5.2291Y-3.3551
X5.2291Y-3.4551
X5.2291Y-3.5551
X5.2291Y-3.6551
X5.2291Y-3.7551
X5.2291Y-3.8551
X5.2291Y-3.9551
X5.2291Y-4.0551
X5.2291Y-4.1551
X5.2291Y-4.2551
X5.2291Y-4.3551
X5.2291Y-4.4551
X5.2291Y-4.5551
X5.2291Y-4.6551
X5.2291Y-4.7551
X5.2291Y-4.8551
X5.3291Y-3.2551
X5.3291Y-3.3551
X5.3291Y-3.4551
X5.3291Y-3.5551
X5.3291Y-3.6551
X5.3291Y-3.7551
X5.3291Y-3.8551
X5.3291Y-3.9551
X5.3291Y-4.0551
X5.3291Y-4.1551
X5.3291Y-4.2551
X5.3291Y-4.3551
X5.3291Y-4.4551
X5.3291Y-4.5551
X5.3291Y-4.6551
X5.3291Y-4.7551
X5.3291Y-4.8551
X5.4291Y-3.2551
X5.4291Y-3.3551
X5.4291Y-3.4551
X5.4291Y-3.5551
X5.4291Y-3.6551
X5.4291Y-3.7551
X5.4291Y-3.8551
X5.4291Y-3.9551
X5.4291Y-4.0551
X5.4291Y-4.1551
X5.4291Y-4.2551
X5.4291Y-4.3551
X5.4291Y-4.4551
X5.4291Y-4.5551
X5.4291Y-4.6551
X5.4291Y-4.7551
X5.4291Y-4.8551
X5.5291Y-3.2551
X5.5291Y-3.3551
X5.5291Y-3.4551
X5.5291Y-3.5551
X5.5291Y-3.6551
X5.5291Y-3.7551
X5.5291Y-3.8551
X5.5291Y-3.9551
X5.5291Y-4.0551
X5.5291Y-4.1551
X5.5291Y-4.2551
X5.5291Y-4.3551
X5.5291Y-4.4551
X5.5291Y-4.5551
X5.5291Y-4.6551
X5.5291Y-4.7551
X5.5291Y-4.8551
X5.6291Y-3.2551
X5.6291Y-3.3551
X5.6291Y-3.4551
X5.6291Y-3.5551
X5.6291Y-3.6551
X5.6291Y-3.7551
X5.6291Y-3.8551
X5.6291Y-3.9551
X5.6291Y-4.0551
X5.6291Y-4.1551
X5.6291Y-4.2551
X5.6291Y-4.3551
X5.6291Y-4.4551
X5.6291Y-4.5551
X5.6291Y-4.6551
X5.6291Y-4.7551
X5.6291Y-4.8551
X5.7291Y-3.2551
X5.7291Y-3.3551
X5.7291Y-3.4551
X5.7291Y-3.5551
X5.7291Y-3.6551
X5.7291Y-3.7551
X5.7291Y-3.8551
X5.7291Y-3.9551
X5.7291Y-4.0551
X5.7291Y-4.1551
X5.7291Y-4.2551
X5.7291Y-4.3551
X5.7291Y-4.4551
X5.7291Y-4.5551
X5.7291Y-4.6551
X5.7291Y-4.7551
X5.7291Y-4.8551
X5.8291Y-3.2551
X5.8291Y-3.3551
X5.8291Y-3.4551
X5.8291Y-3.5551
X5.8291Y-3.6551
X5.8291Y-3.7551
X5.8291Y-3.8551
X5.8291Y-3.9551
X5.8291Y-4.0551
X5.8291Y-4.1551
X5.8291Y-4.2551
X5.8291Y-4.3551
X5.8291Y-4.4551
X5.8291Y-4.5551
X5.8291Y-4.6551
X5.8291Y-4.7551
X5.8291Y-4.8551
X7.2047Y-3.2327
T3
X5.9878Y-4.3961
X6.7878Y-4.3961
T0
M30
