G04 #@! TF.GenerationSoftware,KiCad,Pcbnew,5.1.8-db9833491~87~ubuntu20.04.1*
G04 #@! TF.CreationDate,2020-11-19T11:25:10+01:00*
G04 #@! TF.ProjectId,sally,73616c6c-792e-46b6-9963-61645f706362,v1.0*
G04 #@! TF.SameCoordinates,Original*
G04 #@! TF.FileFunction,Copper,L1,Top*
G04 #@! TF.FilePolarity,Positive*
%FSLAX46Y46*%
G04 Gerber Fmt 4.6, Leading zero omitted, Abs format (unit mm)*
G04 Created by KiCad (PCBNEW 5.1.8-db9833491~87~ubuntu20.04.1) date 2020-11-19 11:25:10*
%MOMM*%
%LPD*%
G01*
G04 APERTURE LIST*
G04 #@! TA.AperFunction,SMDPad,CuDef*
%ADD10R,0.450000X1.450000*%
G04 #@! TD*
G04 #@! TA.AperFunction,ComponentPad*
%ADD11R,1.700000X1.700000*%
G04 #@! TD*
G04 #@! TA.AperFunction,ComponentPad*
%ADD12C,2.286000*%
G04 #@! TD*
G04 #@! TA.AperFunction,SMDPad,CuDef*
%ADD13O,1.800000X0.800000*%
G04 #@! TD*
G04 #@! TA.AperFunction,ComponentPad*
%ADD14C,1.700000*%
G04 #@! TD*
G04 #@! TA.AperFunction,ViaPad*
%ADD15C,0.800000*%
G04 #@! TD*
G04 #@! TA.AperFunction,ViaPad*
%ADD16C,0.600000*%
G04 #@! TD*
G04 #@! TA.AperFunction,Conductor*
%ADD17C,0.250000*%
G04 #@! TD*
G04 #@! TA.AperFunction,Conductor*
%ADD18C,0.500000*%
G04 #@! TD*
G04 #@! TA.AperFunction,Conductor*
%ADD19C,0.750000*%
G04 #@! TD*
G04 #@! TA.AperFunction,Conductor*
%ADD20C,0.450000*%
G04 #@! TD*
G04 APERTURE END LIST*
D10*
X152575000Y-92450000D03*
X153225000Y-92450000D03*
X153875000Y-92450000D03*
X154525000Y-92450000D03*
X155175000Y-92450000D03*
X155825000Y-92450000D03*
X156475000Y-92450000D03*
X157125000Y-92450000D03*
X157775000Y-92450000D03*
X158425000Y-92450000D03*
X158425000Y-86550000D03*
X157775000Y-86550000D03*
X157125000Y-86550000D03*
X156475000Y-86550000D03*
X155825000Y-86550000D03*
X155175000Y-86550000D03*
X154525000Y-86550000D03*
X153875000Y-86550000D03*
X153225000Y-86550000D03*
X152575000Y-86550000D03*
G04 #@! TA.AperFunction,SMDPad,CuDef*
G36*
G01*
X160570000Y-96345000D02*
X160570000Y-98395000D01*
G75*
G02*
X160320000Y-98645000I-250000J0D01*
G01*
X158745000Y-98645000D01*
G75*
G02*
X158495000Y-98395000I0J250000D01*
G01*
X158495000Y-96345000D01*
G75*
G02*
X158745000Y-96095000I250000J0D01*
G01*
X160320000Y-96095000D01*
G75*
G02*
X160570000Y-96345000I0J-250000D01*
G01*
G37*
G04 #@! TD.AperFunction*
G04 #@! TA.AperFunction,SMDPad,CuDef*
G36*
G01*
X154345000Y-96345000D02*
X154345000Y-98395000D01*
G75*
G02*
X154095000Y-98645000I-250000J0D01*
G01*
X152520000Y-98645000D01*
G75*
G02*
X152270000Y-98395000I0J250000D01*
G01*
X152270000Y-96345000D01*
G75*
G02*
X152520000Y-96095000I250000J0D01*
G01*
X154095000Y-96095000D01*
G75*
G02*
X154345000Y-96345000I0J-250000D01*
G01*
G37*
G04 #@! TD.AperFunction*
G04 #@! TA.AperFunction,SMDPad,CuDef*
G36*
G01*
X156685000Y-94456250D02*
X156685000Y-93943750D01*
G75*
G02*
X156903750Y-93725000I218750J0D01*
G01*
X157341250Y-93725000D01*
G75*
G02*
X157560000Y-93943750I0J-218750D01*
G01*
X157560000Y-94456250D01*
G75*
G02*
X157341250Y-94675000I-218750J0D01*
G01*
X156903750Y-94675000D01*
G75*
G02*
X156685000Y-94456250I0J218750D01*
G01*
G37*
G04 #@! TD.AperFunction*
G04 #@! TA.AperFunction,SMDPad,CuDef*
G36*
G01*
X158260000Y-94456250D02*
X158260000Y-93943750D01*
G75*
G02*
X158478750Y-93725000I218750J0D01*
G01*
X158916250Y-93725000D01*
G75*
G02*
X159135000Y-93943750I0J-218750D01*
G01*
X159135000Y-94456250D01*
G75*
G02*
X158916250Y-94675000I-218750J0D01*
G01*
X158478750Y-94675000D01*
G75*
G02*
X158260000Y-94456250I0J218750D01*
G01*
G37*
G04 #@! TD.AperFunction*
G04 #@! TA.AperFunction,SMDPad,CuDef*
G36*
G01*
X161000000Y-87343750D02*
X161000000Y-87856250D01*
G75*
G02*
X160781250Y-88075000I-218750J0D01*
G01*
X160343750Y-88075000D01*
G75*
G02*
X160125000Y-87856250I0J218750D01*
G01*
X160125000Y-87343750D01*
G75*
G02*
X160343750Y-87125000I218750J0D01*
G01*
X160781250Y-87125000D01*
G75*
G02*
X161000000Y-87343750I0J-218750D01*
G01*
G37*
G04 #@! TD.AperFunction*
G04 #@! TA.AperFunction,SMDPad,CuDef*
G36*
G01*
X162575000Y-87343750D02*
X162575000Y-87856250D01*
G75*
G02*
X162356250Y-88075000I-218750J0D01*
G01*
X161918750Y-88075000D01*
G75*
G02*
X161700000Y-87856250I0J218750D01*
G01*
X161700000Y-87343750D01*
G75*
G02*
X161918750Y-87125000I218750J0D01*
G01*
X162356250Y-87125000D01*
G75*
G02*
X162575000Y-87343750I0J-218750D01*
G01*
G37*
G04 #@! TD.AperFunction*
G04 #@! TA.AperFunction,SMDPad,CuDef*
G36*
G01*
X157635000Y-100243750D02*
X157635000Y-100756250D01*
G75*
G02*
X157416250Y-100975000I-218750J0D01*
G01*
X156978750Y-100975000D01*
G75*
G02*
X156760000Y-100756250I0J218750D01*
G01*
X156760000Y-100243750D01*
G75*
G02*
X156978750Y-100025000I218750J0D01*
G01*
X157416250Y-100025000D01*
G75*
G02*
X157635000Y-100243750I0J-218750D01*
G01*
G37*
G04 #@! TD.AperFunction*
G04 #@! TA.AperFunction,SMDPad,CuDef*
G36*
G01*
X156060000Y-100243750D02*
X156060000Y-100756250D01*
G75*
G02*
X155841250Y-100975000I-218750J0D01*
G01*
X155403750Y-100975000D01*
G75*
G02*
X155185000Y-100756250I0J218750D01*
G01*
X155185000Y-100243750D01*
G75*
G02*
X155403750Y-100025000I218750J0D01*
G01*
X155841250Y-100025000D01*
G75*
G02*
X156060000Y-100243750I0J-218750D01*
G01*
G37*
G04 #@! TD.AperFunction*
D11*
X183000000Y-82110000D03*
G04 #@! TA.AperFunction,SMDPad,CuDef*
G36*
G01*
X150275000Y-85006250D02*
X150275000Y-84493750D01*
G75*
G02*
X150493750Y-84275000I218750J0D01*
G01*
X150931250Y-84275000D01*
G75*
G02*
X151150000Y-84493750I0J-218750D01*
G01*
X151150000Y-85006250D01*
G75*
G02*
X150931250Y-85225000I-218750J0D01*
G01*
X150493750Y-85225000D01*
G75*
G02*
X150275000Y-85006250I0J218750D01*
G01*
G37*
G04 #@! TD.AperFunction*
G04 #@! TA.AperFunction,SMDPad,CuDef*
G36*
G01*
X151850000Y-85006250D02*
X151850000Y-84493750D01*
G75*
G02*
X152068750Y-84275000I218750J0D01*
G01*
X152506250Y-84275000D01*
G75*
G02*
X152725000Y-84493750I0J-218750D01*
G01*
X152725000Y-85006250D01*
G75*
G02*
X152506250Y-85225000I-218750J0D01*
G01*
X152068750Y-85225000D01*
G75*
G02*
X151850000Y-85006250I0J218750D01*
G01*
G37*
G04 #@! TD.AperFunction*
G04 #@! TA.AperFunction,SMDPad,CuDef*
G36*
G01*
X151850000Y-83531250D02*
X151850000Y-83018750D01*
G75*
G02*
X152068750Y-82800000I218750J0D01*
G01*
X152506250Y-82800000D01*
G75*
G02*
X152725000Y-83018750I0J-218750D01*
G01*
X152725000Y-83531250D01*
G75*
G02*
X152506250Y-83750000I-218750J0D01*
G01*
X152068750Y-83750000D01*
G75*
G02*
X151850000Y-83531250I0J218750D01*
G01*
G37*
G04 #@! TD.AperFunction*
G04 #@! TA.AperFunction,SMDPad,CuDef*
G36*
G01*
X150275000Y-83531250D02*
X150275000Y-83018750D01*
G75*
G02*
X150493750Y-82800000I218750J0D01*
G01*
X150931250Y-82800000D01*
G75*
G02*
X151150000Y-83018750I0J-218750D01*
G01*
X151150000Y-83531250D01*
G75*
G02*
X150931250Y-83750000I-218750J0D01*
G01*
X150493750Y-83750000D01*
G75*
G02*
X150275000Y-83531250I0J218750D01*
G01*
G37*
G04 #@! TD.AperFunction*
D12*
X172410000Y-111660000D03*
X152090000Y-111660000D03*
D13*
X180050000Y-83610000D03*
X180050000Y-82110000D03*
X163950000Y-96485000D03*
X163950000Y-95215000D03*
X163950000Y-93945000D03*
X163950000Y-92675000D03*
X163950000Y-91405000D03*
X163950000Y-90135000D03*
X163950000Y-88865000D03*
X163950000Y-87595000D03*
X163950000Y-86325000D03*
X163950000Y-85055000D03*
X163950000Y-83785000D03*
X163950000Y-82515000D03*
D14*
X145520000Y-115700000D03*
X145520000Y-118240000D03*
X145520000Y-123320000D03*
X145520000Y-113160000D03*
X145520000Y-120780000D03*
X142980000Y-113160000D03*
X142980000Y-118240000D03*
X142980000Y-115700000D03*
X142980000Y-120780000D03*
X142980000Y-123320000D03*
X140440000Y-113160000D03*
X137900000Y-123320000D03*
X137900000Y-120780000D03*
X140440000Y-118240000D03*
X137900000Y-113160000D03*
X140440000Y-115700000D03*
X137900000Y-118240000D03*
X140440000Y-120780000D03*
X137900000Y-115700000D03*
X140440000Y-123320000D03*
X127740000Y-120780000D03*
X135360000Y-113160000D03*
X127740000Y-115700000D03*
X130280000Y-118240000D03*
X132820000Y-123320000D03*
X130280000Y-113160000D03*
X132820000Y-120780000D03*
X127740000Y-113160000D03*
X135360000Y-118240000D03*
X130280000Y-115700000D03*
X132820000Y-113160000D03*
X127740000Y-123320000D03*
X135360000Y-115700000D03*
X132820000Y-118240000D03*
X135360000Y-120780000D03*
X130280000Y-123320000D03*
X132820000Y-115700000D03*
X130280000Y-120780000D03*
X127740000Y-118240000D03*
X135360000Y-123320000D03*
X117580000Y-113160000D03*
X120120000Y-120780000D03*
X117580000Y-115700000D03*
X112500000Y-113160000D03*
X120120000Y-115700000D03*
X115040000Y-113160000D03*
X122660000Y-118240000D03*
X125200000Y-123320000D03*
X122660000Y-113160000D03*
X125200000Y-120780000D03*
X120120000Y-113160000D03*
X122660000Y-115700000D03*
X125200000Y-113160000D03*
X120120000Y-123320000D03*
X125200000Y-118240000D03*
X122660000Y-123320000D03*
X125200000Y-115700000D03*
X112500000Y-115700000D03*
X122660000Y-120780000D03*
X120120000Y-118240000D03*
X115040000Y-115700000D03*
X148060000Y-123320000D03*
X115040000Y-103000000D03*
X120120000Y-105540000D03*
X120120000Y-87760000D03*
X122660000Y-108080000D03*
X112500000Y-103000000D03*
X122660000Y-90300000D03*
X112500000Y-92840000D03*
X125200000Y-103000000D03*
X120120000Y-95380000D03*
X122660000Y-110620000D03*
X122660000Y-82680000D03*
X125200000Y-105540000D03*
X125200000Y-87760000D03*
X120120000Y-110620000D03*
X125200000Y-100460000D03*
X125200000Y-90300000D03*
X112500000Y-108080000D03*
X117580000Y-108080000D03*
X125200000Y-85220000D03*
X122660000Y-103000000D03*
X115040000Y-105540000D03*
X117580000Y-95380000D03*
X125200000Y-95380000D03*
X125200000Y-97920000D03*
X115040000Y-95380000D03*
X112500000Y-110620000D03*
X120120000Y-100460000D03*
X125200000Y-108080000D03*
X112500000Y-95380000D03*
X120120000Y-92840000D03*
X117580000Y-97920000D03*
X120120000Y-85220000D03*
X120120000Y-97920000D03*
X112500000Y-105540000D03*
X122660000Y-100460000D03*
X125200000Y-110620000D03*
X117580000Y-105540000D03*
X122660000Y-105540000D03*
X122660000Y-97920000D03*
X115040000Y-97920000D03*
X115040000Y-90300000D03*
X125200000Y-92840000D03*
X122660000Y-92840000D03*
X117580000Y-92840000D03*
X115040000Y-100460000D03*
X120120000Y-103000000D03*
X122660000Y-95380000D03*
X115040000Y-110620000D03*
X117580000Y-110620000D03*
X122660000Y-85220000D03*
X120120000Y-90300000D03*
X112500000Y-90300000D03*
X112500000Y-100460000D03*
X117580000Y-103000000D03*
X120120000Y-108080000D03*
X115040000Y-108080000D03*
X115040000Y-92840000D03*
X117580000Y-100460000D03*
X125200000Y-82680000D03*
X122660000Y-87760000D03*
X120120000Y-82680000D03*
X117580000Y-90300000D03*
X112500000Y-97920000D03*
X135360000Y-92840000D03*
X135360000Y-110620000D03*
X127740000Y-105540000D03*
X127740000Y-87760000D03*
X130280000Y-108080000D03*
X135360000Y-97920000D03*
X130280000Y-90300000D03*
X132820000Y-103000000D03*
X127740000Y-95380000D03*
X130280000Y-110620000D03*
X130280000Y-82680000D03*
X135360000Y-108080000D03*
X132820000Y-105540000D03*
X135360000Y-103000000D03*
X132820000Y-87760000D03*
X127740000Y-110620000D03*
X132820000Y-100460000D03*
X132820000Y-90300000D03*
X132820000Y-85220000D03*
X130280000Y-103000000D03*
X132820000Y-95380000D03*
X132820000Y-97920000D03*
X135360000Y-85220000D03*
X135360000Y-105540000D03*
X127740000Y-100460000D03*
X132820000Y-108080000D03*
X127740000Y-92840000D03*
X127740000Y-85220000D03*
X127740000Y-97920000D03*
X130280000Y-100460000D03*
X132820000Y-110620000D03*
X130280000Y-105540000D03*
X130280000Y-97920000D03*
X132820000Y-92840000D03*
X130280000Y-92840000D03*
X127740000Y-103000000D03*
X130280000Y-95380000D03*
X130280000Y-85220000D03*
X135360000Y-95380000D03*
X135360000Y-100460000D03*
X127740000Y-90300000D03*
X127740000Y-108080000D03*
X135360000Y-90300000D03*
X132820000Y-82680000D03*
X130280000Y-87760000D03*
X127740000Y-82680000D03*
X135360000Y-87760000D03*
X135360000Y-82680000D03*
X140440000Y-92840000D03*
X140440000Y-110620000D03*
X140440000Y-97920000D03*
X137900000Y-103000000D03*
X140440000Y-108080000D03*
X137900000Y-105540000D03*
X140440000Y-103000000D03*
X137900000Y-87760000D03*
X137900000Y-100460000D03*
X137900000Y-90300000D03*
X137900000Y-85220000D03*
X137900000Y-95380000D03*
X137900000Y-97920000D03*
X140440000Y-85220000D03*
X140440000Y-105540000D03*
X137900000Y-108080000D03*
X137900000Y-110620000D03*
X137900000Y-92840000D03*
X140440000Y-95380000D03*
X140440000Y-100460000D03*
X140440000Y-90300000D03*
X137900000Y-82680000D03*
X140440000Y-87760000D03*
X140440000Y-82680000D03*
X142980000Y-92840000D03*
X142980000Y-110620000D03*
X142980000Y-97920000D03*
X142980000Y-108080000D03*
X142980000Y-103000000D03*
X142980000Y-85220000D03*
X142980000Y-105540000D03*
X142980000Y-95380000D03*
X142980000Y-100460000D03*
X142980000Y-90300000D03*
X142980000Y-87760000D03*
X142980000Y-82680000D03*
X145520000Y-108080000D03*
X145520000Y-100460000D03*
X145520000Y-110620000D03*
X145520000Y-105540000D03*
X145520000Y-103000000D03*
X145520000Y-97920000D03*
X145520000Y-92840000D03*
X145520000Y-95380000D03*
X145520000Y-90300000D03*
X145520000Y-87760000D03*
X145520000Y-85220000D03*
X145520000Y-82680000D03*
X148060000Y-120780000D03*
X148060000Y-118240000D03*
X148060000Y-115700000D03*
X148060000Y-113160000D03*
X148060000Y-110620000D03*
X148060000Y-108080000D03*
X148060000Y-105540000D03*
X148060000Y-103000000D03*
X148060000Y-100460000D03*
X148060000Y-97920000D03*
X148060000Y-95380000D03*
X148060000Y-92840000D03*
X148060000Y-90300000D03*
X148060000Y-87760000D03*
X148060000Y-85220000D03*
X148060000Y-82680000D03*
X117580000Y-87760000D03*
X117580000Y-82680000D03*
X117580000Y-85220000D03*
X112500000Y-87760000D03*
X115040000Y-87760000D03*
X117580000Y-120780000D03*
X117580000Y-123320000D03*
X115040000Y-118240000D03*
X112500000Y-118240000D03*
X117580000Y-118240000D03*
D15*
X162439999Y-96480000D03*
X154742490Y-97370004D03*
X158230000Y-100490002D03*
D16*
X156480000Y-91220000D03*
D15*
X178550000Y-83609998D03*
X159512000Y-87604600D03*
X162449994Y-82500000D03*
X159750000Y-94200000D03*
D16*
X155175000Y-85300000D03*
X155175000Y-88500000D03*
X155825000Y-84800000D03*
X155825000Y-89200000D03*
X156475000Y-85300000D03*
X156475000Y-89900000D03*
D15*
X165500050Y-87600000D03*
X165500000Y-92424988D03*
X154158387Y-88266918D03*
X149600000Y-84025002D03*
D17*
X163945000Y-96480000D02*
X163950000Y-96485000D01*
D18*
X162439999Y-96480000D02*
X163945000Y-96480000D01*
D17*
X154949992Y-97370004D02*
X154742490Y-97370004D01*
D19*
X153307500Y-97370000D02*
X154742486Y-97370000D01*
D17*
X154742486Y-97370000D02*
X154742490Y-97370004D01*
X154949996Y-97370000D02*
X154949992Y-97370004D01*
X158220002Y-100500000D02*
X158230000Y-100490002D01*
X157197500Y-100500000D02*
X158220002Y-100500000D01*
X156475000Y-91225000D02*
X156480000Y-91220000D01*
D20*
X156475000Y-92450000D02*
X156475000Y-91225000D01*
D19*
X180060000Y-83620000D02*
X180050000Y-83610000D01*
X180049998Y-83609998D02*
X179115685Y-83609998D01*
X179115685Y-83609998D02*
X178550000Y-83609998D01*
X180050000Y-83610000D02*
X180049998Y-83609998D01*
D17*
X159516600Y-87600000D02*
X159512000Y-87604600D01*
D18*
X160562500Y-87600000D02*
X159516600Y-87600000D01*
X163945000Y-82520000D02*
X163950000Y-82515000D01*
X162464994Y-82515000D02*
X162449994Y-82500000D01*
X163950000Y-82515000D02*
X162464994Y-82515000D01*
X158697500Y-94200000D02*
X159750000Y-94200000D01*
D17*
X155620000Y-95204090D02*
X154525000Y-94109090D01*
X155620000Y-101580000D02*
X155620000Y-95204090D01*
X148060000Y-105540000D02*
X151660000Y-105540000D01*
X154525000Y-94109090D02*
X154525000Y-92450000D01*
X151660000Y-105540000D02*
X155620000Y-101580000D01*
X168700051Y-105712002D02*
X153632053Y-120780000D01*
X168700051Y-86810451D02*
X168700051Y-105712002D01*
X149137630Y-120780000D02*
X148060000Y-120780000D01*
X153632053Y-120780000D02*
X149137630Y-120780000D01*
X163950000Y-83785000D02*
X165674600Y-83785000D01*
X165674600Y-83785000D02*
X168700051Y-86810451D01*
X157125000Y-85368800D02*
X157125000Y-86550000D01*
X163950000Y-83785000D02*
X158708800Y-83785000D01*
X158708800Y-83785000D02*
X157125000Y-85368800D01*
X157775000Y-85575000D02*
X157775000Y-86550000D01*
X158295000Y-85055000D02*
X157775000Y-85575000D01*
X163950000Y-85055000D02*
X158295000Y-85055000D01*
X149137630Y-118240000D02*
X148060000Y-118240000D01*
X155535643Y-118240000D02*
X149137630Y-118240000D01*
X168250042Y-105525601D02*
X155535643Y-118240000D01*
X168250042Y-87351042D02*
X168250042Y-105525601D01*
X163950000Y-85055000D02*
X165954000Y-85055000D01*
X165954000Y-85055000D02*
X168250042Y-87351042D01*
X158650000Y-86325000D02*
X158425000Y-86550000D01*
X163950000Y-86325000D02*
X158650000Y-86325000D01*
X167800033Y-105339200D02*
X157439233Y-115700000D01*
X149137630Y-115700000D02*
X148060000Y-115700000D01*
X163950000Y-86325000D02*
X166300000Y-86325000D01*
X167800033Y-87825033D02*
X167800033Y-105339200D01*
X166300000Y-86325000D02*
X167800033Y-87825033D01*
X157439233Y-115700000D02*
X149137630Y-115700000D01*
X154525000Y-87519800D02*
X154525000Y-86550000D01*
X158107800Y-87807800D02*
X154813000Y-87807800D01*
X163950000Y-88865000D02*
X159165000Y-88865000D01*
X154813000Y-87807800D02*
X154525000Y-87519800D01*
X159165000Y-88865000D02*
X158107800Y-87807800D01*
X165565000Y-88865000D02*
X167350022Y-90650022D01*
X163950000Y-88865000D02*
X165565000Y-88865000D01*
X167350022Y-90650022D02*
X167350022Y-105152800D01*
X149835000Y-113160000D02*
X148060000Y-113160000D01*
X167350022Y-105152800D02*
X158262822Y-114240000D01*
X158262822Y-114240000D02*
X150915000Y-114240000D01*
X150915000Y-114240000D02*
X149835000Y-113160000D01*
X155175000Y-86550000D02*
X155175000Y-85300000D01*
X158900000Y-89500000D02*
X157900000Y-88500000D01*
X157900000Y-88500000D02*
X155175000Y-88500000D01*
X162100000Y-89500000D02*
X158900000Y-89500000D01*
X163950000Y-90135000D02*
X162735000Y-90135000D01*
X162735000Y-90135000D02*
X162100000Y-89500000D01*
X149395000Y-110620000D02*
X148060000Y-110620000D01*
X149750000Y-110975000D02*
X149395000Y-110620000D01*
X149750000Y-112393591D02*
X149750000Y-110975000D01*
X165435000Y-90135000D02*
X166900011Y-91600011D01*
X166900011Y-91600011D02*
X166900011Y-104966400D01*
X166900011Y-104966400D02*
X158076422Y-113789989D01*
X158076422Y-113789989D02*
X151146398Y-113789989D01*
X163950000Y-90135000D02*
X165435000Y-90135000D01*
X151146398Y-113789989D02*
X149750000Y-112393591D01*
X155825000Y-86550000D02*
X155825000Y-84800000D01*
X157700000Y-89200000D02*
X155825000Y-89200000D01*
X161300000Y-90000000D02*
X158500000Y-90000000D01*
X163950000Y-91405000D02*
X162705000Y-91405000D01*
X158500000Y-90000000D02*
X157700000Y-89200000D01*
X162705000Y-91405000D02*
X161300000Y-90000000D01*
X149380000Y-108080000D02*
X148060000Y-108080000D01*
X150252800Y-112259978D02*
X150252800Y-108952800D01*
X165603004Y-91405000D02*
X166450000Y-92251996D01*
X163950000Y-91405000D02*
X165603004Y-91405000D01*
X150252800Y-108952800D02*
X149380000Y-108080000D01*
X166450000Y-92251996D02*
X166450000Y-104780000D01*
X166450000Y-104780000D02*
X157890022Y-113339978D01*
X157890022Y-113339978D02*
X151332798Y-113339978D01*
X151332798Y-113339978D02*
X150252800Y-112259978D01*
X156475000Y-86550000D02*
X156475000Y-85300000D01*
X160600000Y-90600000D02*
X162675000Y-92675000D01*
X158200000Y-90600000D02*
X160600000Y-90600000D01*
X162675000Y-92675000D02*
X163950000Y-92675000D01*
X156475000Y-89900000D02*
X157500000Y-89900000D01*
X157500000Y-89900000D02*
X158200000Y-90600000D01*
X157775000Y-91475000D02*
X157775000Y-92450000D01*
X159875000Y-91175000D02*
X158075000Y-91175000D01*
X158075000Y-91175000D02*
X157775000Y-91475000D01*
X163950000Y-93945000D02*
X162645000Y-93945000D01*
X162645000Y-93945000D02*
X159875000Y-91175000D01*
X163950000Y-95215000D02*
X162615000Y-95215000D01*
X159850000Y-92450000D02*
X158425000Y-92450000D01*
X162615000Y-95215000D02*
X159850000Y-92450000D01*
D19*
X180050000Y-82110000D02*
X183000000Y-82110000D01*
D17*
X157125000Y-94197500D02*
X157122500Y-94200000D01*
D20*
X157125000Y-92450000D02*
X157125000Y-94197500D01*
D18*
X157122500Y-96392500D02*
X157122500Y-94775000D01*
X159532500Y-97370000D02*
X158100000Y-97370000D01*
X158100000Y-97370000D02*
X157122500Y-96392500D01*
X157122500Y-94775000D02*
X157122500Y-94200000D01*
X146982370Y-123320000D02*
X145520000Y-123320000D01*
X148060000Y-123320000D02*
X146982370Y-123320000D01*
X144442370Y-123320000D02*
X142980000Y-123320000D01*
X145520000Y-123320000D02*
X144442370Y-123320000D01*
X141902370Y-123320000D02*
X140440000Y-123320000D01*
X142980000Y-123320000D02*
X141902370Y-123320000D01*
X138977630Y-123320000D02*
X140440000Y-123320000D01*
X137900000Y-123320000D02*
X138977630Y-123320000D01*
D17*
X162142500Y-87595000D02*
X162137500Y-87600000D01*
D18*
X163950000Y-87595000D02*
X162142500Y-87595000D01*
X163950000Y-87595000D02*
X165495050Y-87595000D01*
D17*
X165495050Y-87595000D02*
X165500050Y-87600000D01*
D18*
X165500000Y-92990673D02*
X165500000Y-92424988D01*
X165500000Y-96805800D02*
X165500000Y-92990673D01*
X159532500Y-97370000D02*
X164935800Y-97370000D01*
X164935800Y-97370000D02*
X165500000Y-96805800D01*
D17*
X156710003Y-90525001D02*
X155725001Y-90525001D01*
X157125000Y-92450000D02*
X157125000Y-90939998D01*
X157125000Y-90939998D02*
X156710003Y-90525001D01*
X155725001Y-90525001D02*
X154158387Y-88958387D01*
X154158387Y-88958387D02*
X154158387Y-88266918D01*
D19*
X154365000Y-111660000D02*
X152090000Y-111660000D01*
X159532500Y-97370000D02*
X159532500Y-106492500D01*
X159532500Y-106492500D02*
X154365000Y-111660000D01*
D17*
X149600000Y-83675000D02*
X149600000Y-84025002D01*
X150712500Y-83275000D02*
X150000000Y-83275000D01*
X150000000Y-83275000D02*
X149600000Y-83675000D01*
X149600000Y-84350000D02*
X149600000Y-84025002D01*
X150712500Y-84750000D02*
X150000000Y-84750000D01*
X150000000Y-84750000D02*
X149600000Y-84350000D01*
X150700000Y-97300000D02*
X150080000Y-97920000D01*
X152575000Y-92450000D02*
X152575000Y-93925000D01*
X150080000Y-97920000D02*
X148060000Y-97920000D01*
X150700000Y-95800000D02*
X150700000Y-97300000D01*
X152575000Y-93925000D02*
X150700000Y-95800000D01*
X153225000Y-93955000D02*
X153225000Y-92450000D01*
X151200000Y-95980000D02*
X153225000Y-93955000D01*
X151200000Y-99400000D02*
X151200000Y-95980000D01*
X148060000Y-100460000D02*
X150140000Y-100460000D01*
X150140000Y-100460000D02*
X151200000Y-99400000D01*
X153875000Y-93425000D02*
X153875000Y-92450000D01*
X153875000Y-93941410D02*
X153875000Y-93425000D01*
X151700000Y-96116410D02*
X153875000Y-93941410D01*
X151700000Y-101500000D02*
X151700000Y-96116410D01*
X148060000Y-103000000D02*
X150200000Y-103000000D01*
X150200000Y-103000000D02*
X151700000Y-101500000D01*
X149800000Y-93500000D02*
X149800000Y-95100000D01*
X155175000Y-92450000D02*
X155175000Y-91475000D01*
X152100000Y-91200000D02*
X149800000Y-93500000D01*
X149520000Y-95380000D02*
X148060000Y-95380000D01*
X154900000Y-91200000D02*
X152100000Y-91200000D01*
X155175000Y-91475000D02*
X154900000Y-91200000D01*
X149800000Y-95100000D02*
X149520000Y-95380000D01*
X151100000Y-90300000D02*
X149262081Y-90300000D01*
X149262081Y-90300000D02*
X148060000Y-90300000D01*
X153875000Y-87525000D02*
X151100000Y-90300000D01*
X153875000Y-86550000D02*
X153875000Y-87525000D01*
X153050000Y-83275000D02*
X152287500Y-83275000D01*
X153875000Y-86550000D02*
X153875000Y-84100000D01*
X153875000Y-84100000D02*
X153050000Y-83275000D01*
X153225000Y-87525000D02*
X152990000Y-87760000D01*
X149262081Y-87760000D02*
X148060000Y-87760000D01*
X152990000Y-87760000D02*
X149262081Y-87760000D01*
X153225000Y-86550000D02*
X153225000Y-87525000D01*
X153000000Y-84750000D02*
X152287500Y-84750000D01*
X153225000Y-86550000D02*
X153225000Y-84975000D01*
X153225000Y-84975000D02*
X153000000Y-84750000D01*
X148065000Y-85225000D02*
X148060000Y-85220000D01*
X149425000Y-85225000D02*
X148065000Y-85225000D01*
X152575000Y-86550000D02*
X150750000Y-86550000D01*
X150750000Y-86550000D02*
X149425000Y-85225000D01*
X149760000Y-92840000D02*
X148060000Y-92840000D01*
X151900000Y-90700000D02*
X149760000Y-92840000D01*
X155050000Y-90700000D02*
X151900000Y-90700000D01*
X155825000Y-92450000D02*
X155825000Y-91475000D01*
X155825000Y-91475000D02*
X155050000Y-90700000D01*
M02*
