G04 #@! TF.GenerationSoftware,KiCad,Pcbnew,5.1.8-db9833491~87~ubuntu20.04.1*
G04 #@! TF.CreationDate,2020-11-19T11:25:10+01:00*
G04 #@! TF.ProjectId,sally,73616c6c-792e-46b6-9963-61645f706362,v1.0*
G04 #@! TF.SameCoordinates,Original*
G04 #@! TF.FileFunction,Copper,L2,Bot*
G04 #@! TF.FilePolarity,Positive*
%FSLAX46Y46*%
G04 Gerber Fmt 4.6, Leading zero omitted, Abs format (unit mm)*
G04 Created by KiCad (PCBNEW 5.1.8-db9833491~87~ubuntu20.04.1) date 2020-11-19 11:25:10*
%MOMM*%
%LPD*%
G01*
G04 APERTURE LIST*
G04 #@! TA.AperFunction,ComponentPad*
%ADD10R,1.700000X1.700000*%
G04 #@! TD*
G04 #@! TA.AperFunction,ComponentPad*
%ADD11C,2.286000*%
G04 #@! TD*
G04 #@! TA.AperFunction,ComponentPad*
%ADD12C,1.700000*%
G04 #@! TD*
G04 #@! TA.AperFunction,ViaPad*
%ADD13C,0.800000*%
G04 #@! TD*
G04 #@! TA.AperFunction,ViaPad*
%ADD14C,0.600000*%
G04 #@! TD*
G04 #@! TA.AperFunction,Conductor*
%ADD15C,0.250000*%
G04 #@! TD*
G04 #@! TA.AperFunction,Conductor*
%ADD16C,0.500000*%
G04 #@! TD*
G04 #@! TA.AperFunction,Conductor*
%ADD17C,0.254000*%
G04 #@! TD*
G04 #@! TA.AperFunction,Conductor*
%ADD18C,0.100000*%
G04 #@! TD*
G04 APERTURE END LIST*
D10*
X183000000Y-82110000D03*
D11*
X172410000Y-111660000D03*
X152090000Y-111660000D03*
D12*
X145520000Y-115700000D03*
X145520000Y-118240000D03*
X145520000Y-123320000D03*
X145520000Y-113160000D03*
X145520000Y-120780000D03*
X142980000Y-113160000D03*
X142980000Y-118240000D03*
X142980000Y-115700000D03*
X142980000Y-120780000D03*
X142980000Y-123320000D03*
X140440000Y-113160000D03*
X137900000Y-123320000D03*
X137900000Y-120780000D03*
X140440000Y-118240000D03*
X137900000Y-113160000D03*
X140440000Y-115700000D03*
X137900000Y-118240000D03*
X140440000Y-120780000D03*
X137900000Y-115700000D03*
X140440000Y-123320000D03*
X127740000Y-120780000D03*
X135360000Y-113160000D03*
X127740000Y-115700000D03*
X130280000Y-118240000D03*
X132820000Y-123320000D03*
X130280000Y-113160000D03*
X132820000Y-120780000D03*
X127740000Y-113160000D03*
X135360000Y-118240000D03*
X130280000Y-115700000D03*
X132820000Y-113160000D03*
X127740000Y-123320000D03*
X135360000Y-115700000D03*
X132820000Y-118240000D03*
X135360000Y-120780000D03*
X130280000Y-123320000D03*
X132820000Y-115700000D03*
X130280000Y-120780000D03*
X127740000Y-118240000D03*
X135360000Y-123320000D03*
X117580000Y-113160000D03*
X120120000Y-120780000D03*
X117580000Y-115700000D03*
X112500000Y-113160000D03*
X120120000Y-115700000D03*
X115040000Y-113160000D03*
X122660000Y-118240000D03*
X125200000Y-123320000D03*
X122660000Y-113160000D03*
X125200000Y-120780000D03*
X120120000Y-113160000D03*
X122660000Y-115700000D03*
X125200000Y-113160000D03*
X120120000Y-123320000D03*
X125200000Y-118240000D03*
X122660000Y-123320000D03*
X125200000Y-115700000D03*
X112500000Y-115700000D03*
X122660000Y-120780000D03*
X120120000Y-118240000D03*
X115040000Y-115700000D03*
X148060000Y-123320000D03*
X115040000Y-103000000D03*
X120120000Y-105540000D03*
X120120000Y-87760000D03*
X122660000Y-108080000D03*
X112500000Y-103000000D03*
X122660000Y-90300000D03*
X112500000Y-92840000D03*
X125200000Y-103000000D03*
X120120000Y-95380000D03*
X122660000Y-110620000D03*
X122660000Y-82680000D03*
X125200000Y-105540000D03*
X125200000Y-87760000D03*
X120120000Y-110620000D03*
X125200000Y-100460000D03*
X125200000Y-90300000D03*
X112500000Y-108080000D03*
X117580000Y-108080000D03*
X125200000Y-85220000D03*
X122660000Y-103000000D03*
X115040000Y-105540000D03*
X117580000Y-95380000D03*
X125200000Y-95380000D03*
X125200000Y-97920000D03*
X115040000Y-95380000D03*
X112500000Y-110620000D03*
X120120000Y-100460000D03*
X125200000Y-108080000D03*
X112500000Y-95380000D03*
X120120000Y-92840000D03*
X117580000Y-97920000D03*
X120120000Y-85220000D03*
X120120000Y-97920000D03*
X112500000Y-105540000D03*
X122660000Y-100460000D03*
X125200000Y-110620000D03*
X117580000Y-105540000D03*
X122660000Y-105540000D03*
X122660000Y-97920000D03*
X115040000Y-97920000D03*
X115040000Y-90300000D03*
X125200000Y-92840000D03*
X122660000Y-92840000D03*
X117580000Y-92840000D03*
X115040000Y-100460000D03*
X120120000Y-103000000D03*
X122660000Y-95380000D03*
X115040000Y-110620000D03*
X117580000Y-110620000D03*
X122660000Y-85220000D03*
X120120000Y-90300000D03*
X112500000Y-90300000D03*
X112500000Y-100460000D03*
X117580000Y-103000000D03*
X120120000Y-108080000D03*
X115040000Y-108080000D03*
X115040000Y-92840000D03*
X117580000Y-100460000D03*
X125200000Y-82680000D03*
X122660000Y-87760000D03*
X120120000Y-82680000D03*
X117580000Y-90300000D03*
X112500000Y-97920000D03*
X135360000Y-92840000D03*
X135360000Y-110620000D03*
X127740000Y-105540000D03*
X127740000Y-87760000D03*
X130280000Y-108080000D03*
X135360000Y-97920000D03*
X130280000Y-90300000D03*
X132820000Y-103000000D03*
X127740000Y-95380000D03*
X130280000Y-110620000D03*
X130280000Y-82680000D03*
X135360000Y-108080000D03*
X132820000Y-105540000D03*
X135360000Y-103000000D03*
X132820000Y-87760000D03*
X127740000Y-110620000D03*
X132820000Y-100460000D03*
X132820000Y-90300000D03*
X132820000Y-85220000D03*
X130280000Y-103000000D03*
X132820000Y-95380000D03*
X132820000Y-97920000D03*
X135360000Y-85220000D03*
X135360000Y-105540000D03*
X127740000Y-100460000D03*
X132820000Y-108080000D03*
X127740000Y-92840000D03*
X127740000Y-85220000D03*
X127740000Y-97920000D03*
X130280000Y-100460000D03*
X132820000Y-110620000D03*
X130280000Y-105540000D03*
X130280000Y-97920000D03*
X132820000Y-92840000D03*
X130280000Y-92840000D03*
X127740000Y-103000000D03*
X130280000Y-95380000D03*
X130280000Y-85220000D03*
X135360000Y-95380000D03*
X135360000Y-100460000D03*
X127740000Y-90300000D03*
X127740000Y-108080000D03*
X135360000Y-90300000D03*
X132820000Y-82680000D03*
X130280000Y-87760000D03*
X127740000Y-82680000D03*
X135360000Y-87760000D03*
X135360000Y-82680000D03*
X140440000Y-92840000D03*
X140440000Y-110620000D03*
X140440000Y-97920000D03*
X137900000Y-103000000D03*
X140440000Y-108080000D03*
X137900000Y-105540000D03*
X140440000Y-103000000D03*
X137900000Y-87760000D03*
X137900000Y-100460000D03*
X137900000Y-90300000D03*
X137900000Y-85220000D03*
X137900000Y-95380000D03*
X137900000Y-97920000D03*
X140440000Y-85220000D03*
X140440000Y-105540000D03*
X137900000Y-108080000D03*
X137900000Y-110620000D03*
X137900000Y-92840000D03*
X140440000Y-95380000D03*
X140440000Y-100460000D03*
X140440000Y-90300000D03*
X137900000Y-82680000D03*
X140440000Y-87760000D03*
X140440000Y-82680000D03*
X142980000Y-92840000D03*
X142980000Y-110620000D03*
X142980000Y-97920000D03*
X142980000Y-108080000D03*
X142980000Y-103000000D03*
X142980000Y-85220000D03*
X142980000Y-105540000D03*
X142980000Y-95380000D03*
X142980000Y-100460000D03*
X142980000Y-90300000D03*
X142980000Y-87760000D03*
X142980000Y-82680000D03*
X145520000Y-108080000D03*
X145520000Y-100460000D03*
X145520000Y-110620000D03*
X145520000Y-105540000D03*
X145520000Y-103000000D03*
X145520000Y-97920000D03*
X145520000Y-92840000D03*
X145520000Y-95380000D03*
X145520000Y-90300000D03*
X145520000Y-87760000D03*
X145520000Y-85220000D03*
X145520000Y-82680000D03*
X148060000Y-120780000D03*
X148060000Y-118240000D03*
X148060000Y-115700000D03*
X148060000Y-113160000D03*
X148060000Y-110620000D03*
X148060000Y-108080000D03*
X148060000Y-105540000D03*
X148060000Y-103000000D03*
X148060000Y-100460000D03*
X148060000Y-97920000D03*
X148060000Y-95380000D03*
X148060000Y-92840000D03*
X148060000Y-90300000D03*
X148060000Y-87760000D03*
X148060000Y-85220000D03*
X148060000Y-82680000D03*
X117580000Y-87760000D03*
X117580000Y-82680000D03*
X117580000Y-85220000D03*
X112500000Y-87760000D03*
X115040000Y-87760000D03*
X117580000Y-120780000D03*
X117580000Y-123320000D03*
X115040000Y-118240000D03*
X112500000Y-118240000D03*
X117580000Y-118240000D03*
D13*
X162439999Y-96480000D03*
X154742490Y-97370004D03*
X158230000Y-100490002D03*
D14*
X156480000Y-91220000D03*
D13*
X178550000Y-83609998D03*
X159512000Y-87604600D03*
X162449994Y-82500000D03*
X159750000Y-94200000D03*
D14*
X155175000Y-85300000D03*
X155175000Y-88500000D03*
X155825000Y-84800000D03*
X155825000Y-89200000D03*
X156475000Y-85300000D03*
X156475000Y-89900000D03*
D13*
X165500050Y-87600000D03*
X165500000Y-92424988D03*
X154158387Y-88266918D03*
X149600000Y-84025002D03*
D15*
X155175000Y-85300000D02*
X155175000Y-88500000D01*
X155825000Y-84800000D02*
X155825000Y-89200000D01*
X156475000Y-85300000D02*
X156475000Y-89900000D01*
D16*
X149520000Y-123320000D02*
X148060000Y-123320000D01*
X152090000Y-111660000D02*
X152090000Y-120750000D01*
X152090000Y-120750000D02*
X149520000Y-123320000D01*
D15*
X165500050Y-92424938D02*
X165500000Y-92424988D01*
D16*
X165500050Y-87600000D02*
X165500050Y-92424938D01*
D15*
X150750002Y-84025002D02*
X149600000Y-84025002D01*
X154158387Y-88266918D02*
X154158387Y-87433387D01*
X154158387Y-87433387D02*
X150750002Y-84025002D01*
D17*
X180873000Y-87009026D02*
X180599469Y-87523465D01*
X180574952Y-87582947D01*
X180549596Y-87642107D01*
X180546665Y-87651577D01*
X180377438Y-88212085D01*
X180364937Y-88275221D01*
X180351560Y-88338154D01*
X180350524Y-88348013D01*
X180293439Y-88930210D01*
X180290000Y-88965124D01*
X180290001Y-117034877D01*
X180293125Y-117066601D01*
X180292995Y-117085293D01*
X180293962Y-117095159D01*
X180355163Y-117677449D01*
X180368104Y-117740493D01*
X180380161Y-117803697D01*
X180383025Y-117813179D01*
X180383026Y-117813186D01*
X180383029Y-117813192D01*
X180556164Y-118372501D01*
X180581093Y-118431805D01*
X180605206Y-118491487D01*
X180609860Y-118500239D01*
X180873000Y-118986908D01*
X180873000Y-125290000D01*
X113034721Y-125290000D01*
X112555867Y-125243048D01*
X112128647Y-125114063D01*
X111734616Y-124904554D01*
X111388786Y-124622501D01*
X111104328Y-124278651D01*
X110892073Y-123886093D01*
X110760109Y-123459788D01*
X110710000Y-122983036D01*
X110710000Y-122814344D01*
X111115000Y-122814344D01*
X111115000Y-123185656D01*
X111187439Y-123549834D01*
X111329534Y-123892882D01*
X111535825Y-124201618D01*
X111798382Y-124464175D01*
X112107118Y-124670466D01*
X112450166Y-124812561D01*
X112814344Y-124885000D01*
X113185656Y-124885000D01*
X113549834Y-124812561D01*
X113892882Y-124670466D01*
X114201618Y-124464175D01*
X114464175Y-124201618D01*
X114670466Y-123892882D01*
X114812561Y-123549834D01*
X114885000Y-123185656D01*
X114885000Y-122814344D01*
X114812561Y-122450166D01*
X114670466Y-122107118D01*
X114464175Y-121798382D01*
X114201618Y-121535825D01*
X113892882Y-121329534D01*
X113549834Y-121187439D01*
X113185656Y-121115000D01*
X112814344Y-121115000D01*
X112450166Y-121187439D01*
X112107118Y-121329534D01*
X111798382Y-121535825D01*
X111535825Y-121798382D01*
X111329534Y-122107118D01*
X111187439Y-122450166D01*
X111115000Y-122814344D01*
X110710000Y-122814344D01*
X110710000Y-87613740D01*
X111015000Y-87613740D01*
X111015000Y-87906260D01*
X111072068Y-88193158D01*
X111184010Y-88463411D01*
X111346525Y-88706632D01*
X111553368Y-88913475D01*
X111727760Y-89030000D01*
X111553368Y-89146525D01*
X111346525Y-89353368D01*
X111184010Y-89596589D01*
X111072068Y-89866842D01*
X111015000Y-90153740D01*
X111015000Y-90446260D01*
X111072068Y-90733158D01*
X111184010Y-91003411D01*
X111346525Y-91246632D01*
X111553368Y-91453475D01*
X111727760Y-91570000D01*
X111553368Y-91686525D01*
X111346525Y-91893368D01*
X111184010Y-92136589D01*
X111072068Y-92406842D01*
X111015000Y-92693740D01*
X111015000Y-92986260D01*
X111072068Y-93273158D01*
X111184010Y-93543411D01*
X111346525Y-93786632D01*
X111553368Y-93993475D01*
X111727760Y-94110000D01*
X111553368Y-94226525D01*
X111346525Y-94433368D01*
X111184010Y-94676589D01*
X111072068Y-94946842D01*
X111015000Y-95233740D01*
X111015000Y-95526260D01*
X111072068Y-95813158D01*
X111184010Y-96083411D01*
X111346525Y-96326632D01*
X111553368Y-96533475D01*
X111727760Y-96650000D01*
X111553368Y-96766525D01*
X111346525Y-96973368D01*
X111184010Y-97216589D01*
X111072068Y-97486842D01*
X111015000Y-97773740D01*
X111015000Y-98066260D01*
X111072068Y-98353158D01*
X111184010Y-98623411D01*
X111346525Y-98866632D01*
X111553368Y-99073475D01*
X111727760Y-99190000D01*
X111553368Y-99306525D01*
X111346525Y-99513368D01*
X111184010Y-99756589D01*
X111072068Y-100026842D01*
X111015000Y-100313740D01*
X111015000Y-100606260D01*
X111072068Y-100893158D01*
X111184010Y-101163411D01*
X111346525Y-101406632D01*
X111553368Y-101613475D01*
X111727760Y-101730000D01*
X111553368Y-101846525D01*
X111346525Y-102053368D01*
X111184010Y-102296589D01*
X111072068Y-102566842D01*
X111015000Y-102853740D01*
X111015000Y-103146260D01*
X111072068Y-103433158D01*
X111184010Y-103703411D01*
X111346525Y-103946632D01*
X111553368Y-104153475D01*
X111727760Y-104270000D01*
X111553368Y-104386525D01*
X111346525Y-104593368D01*
X111184010Y-104836589D01*
X111072068Y-105106842D01*
X111015000Y-105393740D01*
X111015000Y-105686260D01*
X111072068Y-105973158D01*
X111184010Y-106243411D01*
X111346525Y-106486632D01*
X111553368Y-106693475D01*
X111727760Y-106810000D01*
X111553368Y-106926525D01*
X111346525Y-107133368D01*
X111184010Y-107376589D01*
X111072068Y-107646842D01*
X111015000Y-107933740D01*
X111015000Y-108226260D01*
X111072068Y-108513158D01*
X111184010Y-108783411D01*
X111346525Y-109026632D01*
X111553368Y-109233475D01*
X111727760Y-109350000D01*
X111553368Y-109466525D01*
X111346525Y-109673368D01*
X111184010Y-109916589D01*
X111072068Y-110186842D01*
X111015000Y-110473740D01*
X111015000Y-110766260D01*
X111072068Y-111053158D01*
X111184010Y-111323411D01*
X111346525Y-111566632D01*
X111553368Y-111773475D01*
X111727760Y-111890000D01*
X111553368Y-112006525D01*
X111346525Y-112213368D01*
X111184010Y-112456589D01*
X111072068Y-112726842D01*
X111015000Y-113013740D01*
X111015000Y-113306260D01*
X111072068Y-113593158D01*
X111184010Y-113863411D01*
X111346525Y-114106632D01*
X111553368Y-114313475D01*
X111727760Y-114430000D01*
X111553368Y-114546525D01*
X111346525Y-114753368D01*
X111184010Y-114996589D01*
X111072068Y-115266842D01*
X111015000Y-115553740D01*
X111015000Y-115846260D01*
X111072068Y-116133158D01*
X111184010Y-116403411D01*
X111346525Y-116646632D01*
X111553368Y-116853475D01*
X111727760Y-116970000D01*
X111553368Y-117086525D01*
X111346525Y-117293368D01*
X111184010Y-117536589D01*
X111072068Y-117806842D01*
X111015000Y-118093740D01*
X111015000Y-118386260D01*
X111072068Y-118673158D01*
X111184010Y-118943411D01*
X111346525Y-119186632D01*
X111553368Y-119393475D01*
X111796589Y-119555990D01*
X112066842Y-119667932D01*
X112353740Y-119725000D01*
X112646260Y-119725000D01*
X112933158Y-119667932D01*
X113203411Y-119555990D01*
X113446632Y-119393475D01*
X113653475Y-119186632D01*
X113770000Y-119012240D01*
X113886525Y-119186632D01*
X114093368Y-119393475D01*
X114336589Y-119555990D01*
X114606842Y-119667932D01*
X114893740Y-119725000D01*
X115186260Y-119725000D01*
X115473158Y-119667932D01*
X115743411Y-119555990D01*
X115986632Y-119393475D01*
X116193475Y-119186632D01*
X116310000Y-119012240D01*
X116426525Y-119186632D01*
X116633368Y-119393475D01*
X116807760Y-119510000D01*
X116633368Y-119626525D01*
X116426525Y-119833368D01*
X116264010Y-120076589D01*
X116152068Y-120346842D01*
X116095000Y-120633740D01*
X116095000Y-120926260D01*
X116152068Y-121213158D01*
X116264010Y-121483411D01*
X116426525Y-121726632D01*
X116633368Y-121933475D01*
X116807760Y-122050000D01*
X116633368Y-122166525D01*
X116426525Y-122373368D01*
X116264010Y-122616589D01*
X116152068Y-122886842D01*
X116095000Y-123173740D01*
X116095000Y-123466260D01*
X116152068Y-123753158D01*
X116264010Y-124023411D01*
X116426525Y-124266632D01*
X116633368Y-124473475D01*
X116876589Y-124635990D01*
X117146842Y-124747932D01*
X117433740Y-124805000D01*
X117726260Y-124805000D01*
X118013158Y-124747932D01*
X118283411Y-124635990D01*
X118526632Y-124473475D01*
X118733475Y-124266632D01*
X118850000Y-124092240D01*
X118966525Y-124266632D01*
X119173368Y-124473475D01*
X119416589Y-124635990D01*
X119686842Y-124747932D01*
X119973740Y-124805000D01*
X120266260Y-124805000D01*
X120553158Y-124747932D01*
X120823411Y-124635990D01*
X121066632Y-124473475D01*
X121273475Y-124266632D01*
X121390000Y-124092240D01*
X121506525Y-124266632D01*
X121713368Y-124473475D01*
X121956589Y-124635990D01*
X122226842Y-124747932D01*
X122513740Y-124805000D01*
X122806260Y-124805000D01*
X123093158Y-124747932D01*
X123363411Y-124635990D01*
X123606632Y-124473475D01*
X123813475Y-124266632D01*
X123930000Y-124092240D01*
X124046525Y-124266632D01*
X124253368Y-124473475D01*
X124496589Y-124635990D01*
X124766842Y-124747932D01*
X125053740Y-124805000D01*
X125346260Y-124805000D01*
X125633158Y-124747932D01*
X125903411Y-124635990D01*
X126146632Y-124473475D01*
X126353475Y-124266632D01*
X126470000Y-124092240D01*
X126586525Y-124266632D01*
X126793368Y-124473475D01*
X127036589Y-124635990D01*
X127306842Y-124747932D01*
X127593740Y-124805000D01*
X127886260Y-124805000D01*
X128173158Y-124747932D01*
X128443411Y-124635990D01*
X128686632Y-124473475D01*
X128893475Y-124266632D01*
X129010000Y-124092240D01*
X129126525Y-124266632D01*
X129333368Y-124473475D01*
X129576589Y-124635990D01*
X129846842Y-124747932D01*
X130133740Y-124805000D01*
X130426260Y-124805000D01*
X130713158Y-124747932D01*
X130983411Y-124635990D01*
X131226632Y-124473475D01*
X131433475Y-124266632D01*
X131550000Y-124092240D01*
X131666525Y-124266632D01*
X131873368Y-124473475D01*
X132116589Y-124635990D01*
X132386842Y-124747932D01*
X132673740Y-124805000D01*
X132966260Y-124805000D01*
X133253158Y-124747932D01*
X133523411Y-124635990D01*
X133766632Y-124473475D01*
X133973475Y-124266632D01*
X134090000Y-124092240D01*
X134206525Y-124266632D01*
X134413368Y-124473475D01*
X134656589Y-124635990D01*
X134926842Y-124747932D01*
X135213740Y-124805000D01*
X135506260Y-124805000D01*
X135793158Y-124747932D01*
X136063411Y-124635990D01*
X136306632Y-124473475D01*
X136513475Y-124266632D01*
X136630000Y-124092240D01*
X136746525Y-124266632D01*
X136953368Y-124473475D01*
X137196589Y-124635990D01*
X137466842Y-124747932D01*
X137753740Y-124805000D01*
X138046260Y-124805000D01*
X138333158Y-124747932D01*
X138603411Y-124635990D01*
X138846632Y-124473475D01*
X139053475Y-124266632D01*
X139170000Y-124092240D01*
X139286525Y-124266632D01*
X139493368Y-124473475D01*
X139736589Y-124635990D01*
X140006842Y-124747932D01*
X140293740Y-124805000D01*
X140586260Y-124805000D01*
X140873158Y-124747932D01*
X141143411Y-124635990D01*
X141386632Y-124473475D01*
X141593475Y-124266632D01*
X141710000Y-124092240D01*
X141826525Y-124266632D01*
X142033368Y-124473475D01*
X142276589Y-124635990D01*
X142546842Y-124747932D01*
X142833740Y-124805000D01*
X143126260Y-124805000D01*
X143413158Y-124747932D01*
X143683411Y-124635990D01*
X143926632Y-124473475D01*
X144133475Y-124266632D01*
X144250000Y-124092240D01*
X144366525Y-124266632D01*
X144573368Y-124473475D01*
X144816589Y-124635990D01*
X145086842Y-124747932D01*
X145373740Y-124805000D01*
X145666260Y-124805000D01*
X145953158Y-124747932D01*
X146223411Y-124635990D01*
X146466632Y-124473475D01*
X146673475Y-124266632D01*
X146790000Y-124092240D01*
X146906525Y-124266632D01*
X147113368Y-124473475D01*
X147356589Y-124635990D01*
X147626842Y-124747932D01*
X147913740Y-124805000D01*
X148206260Y-124805000D01*
X148493158Y-124747932D01*
X148763411Y-124635990D01*
X149006632Y-124473475D01*
X149213475Y-124266632D01*
X149254656Y-124205000D01*
X149476531Y-124205000D01*
X149520000Y-124209281D01*
X149563469Y-124205000D01*
X149563477Y-124205000D01*
X149693490Y-124192195D01*
X149860313Y-124141589D01*
X150014059Y-124059411D01*
X150148817Y-123948817D01*
X150176534Y-123915044D01*
X152685049Y-121406530D01*
X152718817Y-121378817D01*
X152829411Y-121244059D01*
X152911589Y-121090313D01*
X152962195Y-120923490D01*
X152975000Y-120793477D01*
X152975000Y-120793469D01*
X152979281Y-120750000D01*
X152975000Y-120706531D01*
X152975000Y-113207044D01*
X153223409Y-113041063D01*
X153367112Y-112897360D01*
X171352245Y-112897360D01*
X171465264Y-113176384D01*
X171779249Y-113331556D01*
X172117473Y-113422491D01*
X172466938Y-113445694D01*
X172814216Y-113400275D01*
X173145960Y-113287977D01*
X173354736Y-113176384D01*
X173467755Y-112897360D01*
X172410000Y-111839605D01*
X171352245Y-112897360D01*
X153367112Y-112897360D01*
X153471063Y-112793409D01*
X153665643Y-112502199D01*
X153799672Y-112178623D01*
X153868000Y-111835118D01*
X153868000Y-111716938D01*
X170624306Y-111716938D01*
X170669725Y-112064216D01*
X170782023Y-112395960D01*
X170893616Y-112604736D01*
X171172640Y-112717755D01*
X172230395Y-111660000D01*
X172589605Y-111660000D01*
X173647360Y-112717755D01*
X173926384Y-112604736D01*
X174081556Y-112290751D01*
X174172491Y-111952527D01*
X174195694Y-111603062D01*
X174150275Y-111255784D01*
X174037977Y-110924040D01*
X173926384Y-110715264D01*
X173647360Y-110602245D01*
X172589605Y-111660000D01*
X172230395Y-111660000D01*
X171172640Y-110602245D01*
X170893616Y-110715264D01*
X170738444Y-111029249D01*
X170647509Y-111367473D01*
X170624306Y-111716938D01*
X153868000Y-111716938D01*
X153868000Y-111484882D01*
X153799672Y-111141377D01*
X153665643Y-110817801D01*
X153471063Y-110526591D01*
X153367112Y-110422640D01*
X171352245Y-110422640D01*
X172410000Y-111480395D01*
X173467755Y-110422640D01*
X173354736Y-110143616D01*
X173040751Y-109988444D01*
X172702527Y-109897509D01*
X172353062Y-109874306D01*
X172005784Y-109919725D01*
X171674040Y-110032023D01*
X171465264Y-110143616D01*
X171352245Y-110422640D01*
X153367112Y-110422640D01*
X153223409Y-110278937D01*
X152932199Y-110084357D01*
X152608623Y-109950328D01*
X152265118Y-109882000D01*
X151914882Y-109882000D01*
X151571377Y-109950328D01*
X151247801Y-110084357D01*
X150956591Y-110278937D01*
X150708937Y-110526591D01*
X150514357Y-110817801D01*
X150380328Y-111141377D01*
X150312000Y-111484882D01*
X150312000Y-111835118D01*
X150380328Y-112178623D01*
X150514357Y-112502199D01*
X150708937Y-112793409D01*
X150956591Y-113041063D01*
X151205000Y-113207044D01*
X151205001Y-120383420D01*
X149214107Y-122374314D01*
X149213475Y-122373368D01*
X149006632Y-122166525D01*
X148832240Y-122050000D01*
X149006632Y-121933475D01*
X149213475Y-121726632D01*
X149375990Y-121483411D01*
X149487932Y-121213158D01*
X149545000Y-120926260D01*
X149545000Y-120633740D01*
X149487932Y-120346842D01*
X149375990Y-120076589D01*
X149213475Y-119833368D01*
X149006632Y-119626525D01*
X148832240Y-119510000D01*
X149006632Y-119393475D01*
X149213475Y-119186632D01*
X149375990Y-118943411D01*
X149487932Y-118673158D01*
X149545000Y-118386260D01*
X149545000Y-118093740D01*
X149487932Y-117806842D01*
X149375990Y-117536589D01*
X149213475Y-117293368D01*
X149006632Y-117086525D01*
X148832240Y-116970000D01*
X149006632Y-116853475D01*
X149213475Y-116646632D01*
X149375990Y-116403411D01*
X149487932Y-116133158D01*
X149545000Y-115846260D01*
X149545000Y-115553740D01*
X149487932Y-115266842D01*
X149375990Y-114996589D01*
X149213475Y-114753368D01*
X149006632Y-114546525D01*
X148832240Y-114430000D01*
X149006632Y-114313475D01*
X149213475Y-114106632D01*
X149375990Y-113863411D01*
X149487932Y-113593158D01*
X149545000Y-113306260D01*
X149545000Y-113013740D01*
X149487932Y-112726842D01*
X149375990Y-112456589D01*
X149213475Y-112213368D01*
X149006632Y-112006525D01*
X148832240Y-111890000D01*
X149006632Y-111773475D01*
X149213475Y-111566632D01*
X149375990Y-111323411D01*
X149487932Y-111053158D01*
X149545000Y-110766260D01*
X149545000Y-110473740D01*
X149487932Y-110186842D01*
X149375990Y-109916589D01*
X149213475Y-109673368D01*
X149006632Y-109466525D01*
X148832240Y-109350000D01*
X149006632Y-109233475D01*
X149213475Y-109026632D01*
X149375990Y-108783411D01*
X149487932Y-108513158D01*
X149545000Y-108226260D01*
X149545000Y-107933740D01*
X149487932Y-107646842D01*
X149375990Y-107376589D01*
X149213475Y-107133368D01*
X149006632Y-106926525D01*
X148832240Y-106810000D01*
X149006632Y-106693475D01*
X149213475Y-106486632D01*
X149375990Y-106243411D01*
X149487932Y-105973158D01*
X149545000Y-105686260D01*
X149545000Y-105393740D01*
X149487932Y-105106842D01*
X149375990Y-104836589D01*
X149213475Y-104593368D01*
X149006632Y-104386525D01*
X148832240Y-104270000D01*
X149006632Y-104153475D01*
X149213475Y-103946632D01*
X149375990Y-103703411D01*
X149487932Y-103433158D01*
X149545000Y-103146260D01*
X149545000Y-102853740D01*
X149487932Y-102566842D01*
X149375990Y-102296589D01*
X149213475Y-102053368D01*
X149006632Y-101846525D01*
X148832240Y-101730000D01*
X149006632Y-101613475D01*
X149213475Y-101406632D01*
X149375990Y-101163411D01*
X149487932Y-100893158D01*
X149545000Y-100606260D01*
X149545000Y-100313740D01*
X149487932Y-100026842D01*
X149375990Y-99756589D01*
X149213475Y-99513368D01*
X149006632Y-99306525D01*
X148832240Y-99190000D01*
X149006632Y-99073475D01*
X149213475Y-98866632D01*
X149375990Y-98623411D01*
X149487932Y-98353158D01*
X149545000Y-98066260D01*
X149545000Y-97773740D01*
X149487932Y-97486842D01*
X149375990Y-97216589D01*
X149213475Y-96973368D01*
X149006632Y-96766525D01*
X148832240Y-96650000D01*
X149006632Y-96533475D01*
X149213475Y-96326632D01*
X149375990Y-96083411D01*
X149487932Y-95813158D01*
X149545000Y-95526260D01*
X149545000Y-95233740D01*
X149487932Y-94946842D01*
X149375990Y-94676589D01*
X149213475Y-94433368D01*
X149006632Y-94226525D01*
X148832240Y-94110000D01*
X149006632Y-93993475D01*
X149213475Y-93786632D01*
X149375990Y-93543411D01*
X149487932Y-93273158D01*
X149545000Y-92986260D01*
X149545000Y-92693740D01*
X149487932Y-92406842D01*
X149453224Y-92323049D01*
X164465000Y-92323049D01*
X164465000Y-92526927D01*
X164504774Y-92726886D01*
X164582795Y-92915244D01*
X164696063Y-93084762D01*
X164840226Y-93228925D01*
X165009744Y-93342193D01*
X165198102Y-93420214D01*
X165398061Y-93459988D01*
X165601939Y-93459988D01*
X165801898Y-93420214D01*
X165990256Y-93342193D01*
X166159774Y-93228925D01*
X166303937Y-93084762D01*
X166417205Y-92915244D01*
X166495226Y-92726886D01*
X166535000Y-92526927D01*
X166535000Y-92323049D01*
X166495226Y-92123090D01*
X166417205Y-91934732D01*
X166385050Y-91886609D01*
X166385050Y-88138454D01*
X166417255Y-88090256D01*
X166495276Y-87901898D01*
X166535050Y-87701939D01*
X166535050Y-87498061D01*
X166495276Y-87298102D01*
X166417255Y-87109744D01*
X166303987Y-86940226D01*
X166159824Y-86796063D01*
X165990306Y-86682795D01*
X165801948Y-86604774D01*
X165601989Y-86565000D01*
X165398111Y-86565000D01*
X165198152Y-86604774D01*
X165009794Y-86682795D01*
X164840276Y-86796063D01*
X164696113Y-86940226D01*
X164582845Y-87109744D01*
X164504824Y-87298102D01*
X164465050Y-87498061D01*
X164465050Y-87701939D01*
X164504824Y-87901898D01*
X164582845Y-88090256D01*
X164615050Y-88138454D01*
X164615051Y-91886458D01*
X164582795Y-91934732D01*
X164504774Y-92123090D01*
X164465000Y-92323049D01*
X149453224Y-92323049D01*
X149375990Y-92136589D01*
X149213475Y-91893368D01*
X149006632Y-91686525D01*
X148832240Y-91570000D01*
X149006632Y-91453475D01*
X149213475Y-91246632D01*
X149375990Y-91003411D01*
X149487932Y-90733158D01*
X149545000Y-90446260D01*
X149545000Y-90153740D01*
X149487932Y-89866842D01*
X149375990Y-89596589D01*
X149213475Y-89353368D01*
X149006632Y-89146525D01*
X148832240Y-89030000D01*
X149006632Y-88913475D01*
X149213475Y-88706632D01*
X149375990Y-88463411D01*
X149487932Y-88193158D01*
X149545000Y-87906260D01*
X149545000Y-87613740D01*
X149487932Y-87326842D01*
X149375990Y-87056589D01*
X149213475Y-86813368D01*
X149006632Y-86606525D01*
X148832240Y-86490000D01*
X149006632Y-86373475D01*
X149213475Y-86166632D01*
X149375990Y-85923411D01*
X149487932Y-85653158D01*
X149545000Y-85366260D01*
X149545000Y-85073740D01*
X149542267Y-85060002D01*
X149701939Y-85060002D01*
X149901898Y-85020228D01*
X150090256Y-84942207D01*
X150259774Y-84828939D01*
X150303711Y-84785002D01*
X150435201Y-84785002D01*
X153315554Y-87665356D01*
X153241182Y-87776662D01*
X153163161Y-87965020D01*
X153123387Y-88164979D01*
X153123387Y-88368857D01*
X153163161Y-88568816D01*
X153241182Y-88757174D01*
X153354450Y-88926692D01*
X153498613Y-89070855D01*
X153668131Y-89184123D01*
X153856489Y-89262144D01*
X154056448Y-89301918D01*
X154260326Y-89301918D01*
X154460285Y-89262144D01*
X154569582Y-89216872D01*
X154578972Y-89226262D01*
X154732111Y-89328586D01*
X154902271Y-89399068D01*
X154911651Y-89400934D01*
X154925932Y-89472729D01*
X154996414Y-89642889D01*
X155098738Y-89796028D01*
X155228972Y-89926262D01*
X155382111Y-90028586D01*
X155552271Y-90099068D01*
X155561651Y-90100934D01*
X155575932Y-90172729D01*
X155646414Y-90342889D01*
X155748738Y-90496028D01*
X155878972Y-90626262D01*
X156032111Y-90728586D01*
X156202271Y-90799068D01*
X156382911Y-90835000D01*
X156567089Y-90835000D01*
X156747729Y-90799068D01*
X156917889Y-90728586D01*
X157071028Y-90626262D01*
X157201262Y-90496028D01*
X157303586Y-90342889D01*
X157374068Y-90172729D01*
X157410000Y-89992089D01*
X157410000Y-89807911D01*
X157374068Y-89627271D01*
X157303586Y-89457111D01*
X157235000Y-89354465D01*
X157235000Y-85845535D01*
X157303586Y-85742889D01*
X157374068Y-85572729D01*
X157410000Y-85392089D01*
X157410000Y-85207911D01*
X157374068Y-85027271D01*
X157303586Y-84857111D01*
X157201262Y-84703972D01*
X157071028Y-84573738D01*
X156917889Y-84471414D01*
X156747729Y-84400932D01*
X156664914Y-84384459D01*
X156653586Y-84357111D01*
X156551262Y-84203972D01*
X156421028Y-84073738D01*
X156267889Y-83971414D01*
X156097729Y-83900932D01*
X155917089Y-83865000D01*
X155732911Y-83865000D01*
X155552271Y-83900932D01*
X155382111Y-83971414D01*
X155228972Y-84073738D01*
X155098738Y-84203972D01*
X154996414Y-84357111D01*
X154985086Y-84384459D01*
X154902271Y-84400932D01*
X154732111Y-84471414D01*
X154578972Y-84573738D01*
X154448738Y-84703972D01*
X154346414Y-84857111D01*
X154275932Y-85027271D01*
X154240000Y-85207911D01*
X154240000Y-85392089D01*
X154275932Y-85572729D01*
X154346414Y-85742889D01*
X154415000Y-85845536D01*
X154415000Y-86615199D01*
X151313806Y-83514005D01*
X151290003Y-83485001D01*
X151174278Y-83390028D01*
X151042249Y-83319456D01*
X150898988Y-83275999D01*
X150787335Y-83265002D01*
X150787324Y-83265002D01*
X150750002Y-83261326D01*
X150712680Y-83265002D01*
X150303711Y-83265002D01*
X150259774Y-83221065D01*
X150090256Y-83107797D01*
X149901898Y-83029776D01*
X149701939Y-82990002D01*
X149513405Y-82990002D01*
X149535339Y-82903589D01*
X149550611Y-82611469D01*
X149508599Y-82321981D01*
X149410919Y-82046253D01*
X149337472Y-81908843D01*
X149088397Y-81831208D01*
X148239605Y-82680000D01*
X148253748Y-82694143D01*
X148074143Y-82873748D01*
X148060000Y-82859605D01*
X147211208Y-83708397D01*
X147286729Y-83950689D01*
X147113368Y-84066525D01*
X146906525Y-84273368D01*
X146790000Y-84447760D01*
X146673475Y-84273368D01*
X146466632Y-84066525D01*
X146293271Y-83950689D01*
X146368792Y-83708397D01*
X145520000Y-82859605D01*
X144671208Y-83708397D01*
X144746729Y-83950689D01*
X144573368Y-84066525D01*
X144366525Y-84273368D01*
X144250000Y-84447760D01*
X144133475Y-84273368D01*
X143926632Y-84066525D01*
X143753271Y-83950689D01*
X143828792Y-83708397D01*
X142980000Y-82859605D01*
X142131208Y-83708397D01*
X142206729Y-83950689D01*
X142033368Y-84066525D01*
X141826525Y-84273368D01*
X141710000Y-84447760D01*
X141593475Y-84273368D01*
X141386632Y-84066525D01*
X141213271Y-83950689D01*
X141288792Y-83708397D01*
X140440000Y-82859605D01*
X139591208Y-83708397D01*
X139666729Y-83950689D01*
X139493368Y-84066525D01*
X139286525Y-84273368D01*
X139170000Y-84447760D01*
X139053475Y-84273368D01*
X138846632Y-84066525D01*
X138673271Y-83950689D01*
X138748792Y-83708397D01*
X137900000Y-82859605D01*
X137051208Y-83708397D01*
X137126729Y-83950689D01*
X136953368Y-84066525D01*
X136746525Y-84273368D01*
X136630000Y-84447760D01*
X136513475Y-84273368D01*
X136306632Y-84066525D01*
X136132240Y-83950000D01*
X136306632Y-83833475D01*
X136513475Y-83626632D01*
X136629311Y-83453271D01*
X136871603Y-83528792D01*
X137720395Y-82680000D01*
X138079605Y-82680000D01*
X138928397Y-83528792D01*
X139170000Y-83453486D01*
X139411603Y-83528792D01*
X140260395Y-82680000D01*
X140619605Y-82680000D01*
X141468397Y-83528792D01*
X141710000Y-83453486D01*
X141951603Y-83528792D01*
X142800395Y-82680000D01*
X143159605Y-82680000D01*
X144008397Y-83528792D01*
X144250000Y-83453486D01*
X144491603Y-83528792D01*
X145340395Y-82680000D01*
X145699605Y-82680000D01*
X146548397Y-83528792D01*
X146790000Y-83453486D01*
X147031603Y-83528792D01*
X147880395Y-82680000D01*
X147031603Y-81831208D01*
X146790000Y-81906514D01*
X146548397Y-81831208D01*
X145699605Y-82680000D01*
X145340395Y-82680000D01*
X144491603Y-81831208D01*
X144250000Y-81906514D01*
X144008397Y-81831208D01*
X143159605Y-82680000D01*
X142800395Y-82680000D01*
X141951603Y-81831208D01*
X141710000Y-81906514D01*
X141468397Y-81831208D01*
X140619605Y-82680000D01*
X140260395Y-82680000D01*
X139411603Y-81831208D01*
X139170000Y-81906514D01*
X138928397Y-81831208D01*
X138079605Y-82680000D01*
X137720395Y-82680000D01*
X136871603Y-81831208D01*
X136629311Y-81906729D01*
X136513475Y-81733368D01*
X136431710Y-81651603D01*
X137051208Y-81651603D01*
X137900000Y-82500395D01*
X138748792Y-81651603D01*
X139591208Y-81651603D01*
X140440000Y-82500395D01*
X141288792Y-81651603D01*
X142131208Y-81651603D01*
X142980000Y-82500395D01*
X143828792Y-81651603D01*
X144671208Y-81651603D01*
X145520000Y-82500395D01*
X146368792Y-81651603D01*
X147211208Y-81651603D01*
X148060000Y-82500395D01*
X148908792Y-81651603D01*
X148831157Y-81402528D01*
X148567117Y-81276629D01*
X148283589Y-81204661D01*
X147991469Y-81189389D01*
X147701981Y-81231401D01*
X147426253Y-81329081D01*
X147288843Y-81402528D01*
X147211208Y-81651603D01*
X146368792Y-81651603D01*
X146291157Y-81402528D01*
X146027117Y-81276629D01*
X145743589Y-81204661D01*
X145451469Y-81189389D01*
X145161981Y-81231401D01*
X144886253Y-81329081D01*
X144748843Y-81402528D01*
X144671208Y-81651603D01*
X143828792Y-81651603D01*
X143751157Y-81402528D01*
X143487117Y-81276629D01*
X143203589Y-81204661D01*
X142911469Y-81189389D01*
X142621981Y-81231401D01*
X142346253Y-81329081D01*
X142208843Y-81402528D01*
X142131208Y-81651603D01*
X141288792Y-81651603D01*
X141211157Y-81402528D01*
X140947117Y-81276629D01*
X140663589Y-81204661D01*
X140371469Y-81189389D01*
X140081981Y-81231401D01*
X139806253Y-81329081D01*
X139668843Y-81402528D01*
X139591208Y-81651603D01*
X138748792Y-81651603D01*
X138671157Y-81402528D01*
X138407117Y-81276629D01*
X138123589Y-81204661D01*
X137831469Y-81189389D01*
X137541981Y-81231401D01*
X137266253Y-81329081D01*
X137128843Y-81402528D01*
X137051208Y-81651603D01*
X136431710Y-81651603D01*
X136306632Y-81526525D01*
X136063411Y-81364010D01*
X135793158Y-81252068D01*
X135506260Y-81195000D01*
X135213740Y-81195000D01*
X134926842Y-81252068D01*
X134656589Y-81364010D01*
X134413368Y-81526525D01*
X134206525Y-81733368D01*
X134090000Y-81907760D01*
X133973475Y-81733368D01*
X133766632Y-81526525D01*
X133523411Y-81364010D01*
X133253158Y-81252068D01*
X132966260Y-81195000D01*
X132673740Y-81195000D01*
X132386842Y-81252068D01*
X132116589Y-81364010D01*
X131873368Y-81526525D01*
X131666525Y-81733368D01*
X131550000Y-81907760D01*
X131433475Y-81733368D01*
X131226632Y-81526525D01*
X130983411Y-81364010D01*
X130713158Y-81252068D01*
X130426260Y-81195000D01*
X130133740Y-81195000D01*
X129846842Y-81252068D01*
X129576589Y-81364010D01*
X129333368Y-81526525D01*
X129126525Y-81733368D01*
X129010000Y-81907760D01*
X128893475Y-81733368D01*
X128686632Y-81526525D01*
X128443411Y-81364010D01*
X128173158Y-81252068D01*
X127886260Y-81195000D01*
X127593740Y-81195000D01*
X127306842Y-81252068D01*
X127036589Y-81364010D01*
X126793368Y-81526525D01*
X126586525Y-81733368D01*
X126470000Y-81907760D01*
X126353475Y-81733368D01*
X126146632Y-81526525D01*
X125903411Y-81364010D01*
X125633158Y-81252068D01*
X125346260Y-81195000D01*
X125053740Y-81195000D01*
X124766842Y-81252068D01*
X124496589Y-81364010D01*
X124253368Y-81526525D01*
X124046525Y-81733368D01*
X123930000Y-81907760D01*
X123813475Y-81733368D01*
X123606632Y-81526525D01*
X123363411Y-81364010D01*
X123093158Y-81252068D01*
X122806260Y-81195000D01*
X122513740Y-81195000D01*
X122226842Y-81252068D01*
X121956589Y-81364010D01*
X121713368Y-81526525D01*
X121506525Y-81733368D01*
X121390000Y-81907760D01*
X121273475Y-81733368D01*
X121066632Y-81526525D01*
X120823411Y-81364010D01*
X120553158Y-81252068D01*
X120266260Y-81195000D01*
X119973740Y-81195000D01*
X119686842Y-81252068D01*
X119416589Y-81364010D01*
X119173368Y-81526525D01*
X118966525Y-81733368D01*
X118850000Y-81907760D01*
X118733475Y-81733368D01*
X118526632Y-81526525D01*
X118283411Y-81364010D01*
X118013158Y-81252068D01*
X117726260Y-81195000D01*
X117433740Y-81195000D01*
X117146842Y-81252068D01*
X116876589Y-81364010D01*
X116633368Y-81526525D01*
X116426525Y-81733368D01*
X116264010Y-81976589D01*
X116152068Y-82246842D01*
X116095000Y-82533740D01*
X116095000Y-82826260D01*
X116152068Y-83113158D01*
X116264010Y-83383411D01*
X116426525Y-83626632D01*
X116633368Y-83833475D01*
X116807760Y-83950000D01*
X116633368Y-84066525D01*
X116426525Y-84273368D01*
X116264010Y-84516589D01*
X116152068Y-84786842D01*
X116095000Y-85073740D01*
X116095000Y-85366260D01*
X116152068Y-85653158D01*
X116264010Y-85923411D01*
X116426525Y-86166632D01*
X116633368Y-86373475D01*
X116807760Y-86490000D01*
X116633368Y-86606525D01*
X116426525Y-86813368D01*
X116310000Y-86987760D01*
X116193475Y-86813368D01*
X115986632Y-86606525D01*
X115743411Y-86444010D01*
X115473158Y-86332068D01*
X115186260Y-86275000D01*
X114893740Y-86275000D01*
X114606842Y-86332068D01*
X114336589Y-86444010D01*
X114093368Y-86606525D01*
X113886525Y-86813368D01*
X113770000Y-86987760D01*
X113653475Y-86813368D01*
X113446632Y-86606525D01*
X113203411Y-86444010D01*
X112933158Y-86332068D01*
X112646260Y-86275000D01*
X112353740Y-86275000D01*
X112066842Y-86332068D01*
X111796589Y-86444010D01*
X111553368Y-86606525D01*
X111346525Y-86813368D01*
X111184010Y-87056589D01*
X111072068Y-87326842D01*
X111015000Y-87613740D01*
X110710000Y-87613740D01*
X110710000Y-83034721D01*
X110731608Y-82814344D01*
X111115000Y-82814344D01*
X111115000Y-83185656D01*
X111187439Y-83549834D01*
X111329534Y-83892882D01*
X111535825Y-84201618D01*
X111798382Y-84464175D01*
X112107118Y-84670466D01*
X112450166Y-84812561D01*
X112814344Y-84885000D01*
X113185656Y-84885000D01*
X113549834Y-84812561D01*
X113892882Y-84670466D01*
X114201618Y-84464175D01*
X114464175Y-84201618D01*
X114670466Y-83892882D01*
X114812561Y-83549834D01*
X114885000Y-83185656D01*
X114885000Y-82814344D01*
X114812561Y-82450166D01*
X114670466Y-82107118D01*
X114464175Y-81798382D01*
X114201618Y-81535825D01*
X113892882Y-81329534D01*
X113549834Y-81187439D01*
X113185656Y-81115000D01*
X112814344Y-81115000D01*
X112450166Y-81187439D01*
X112107118Y-81329534D01*
X111798382Y-81535825D01*
X111535825Y-81798382D01*
X111329534Y-82107118D01*
X111187439Y-82450166D01*
X111115000Y-82814344D01*
X110731608Y-82814344D01*
X110756953Y-82555866D01*
X110885938Y-82128645D01*
X111095446Y-81734616D01*
X111377499Y-81388786D01*
X111721351Y-81104327D01*
X112113910Y-80892071D01*
X112540213Y-80760108D01*
X113016964Y-80710000D01*
X180873000Y-80710000D01*
X180873000Y-87009026D01*
G04 #@! TA.AperFunction,Conductor*
D18*
G36*
X180873000Y-87009026D02*
G01*
X180599469Y-87523465D01*
X180574952Y-87582947D01*
X180549596Y-87642107D01*
X180546665Y-87651577D01*
X180377438Y-88212085D01*
X180364937Y-88275221D01*
X180351560Y-88338154D01*
X180350524Y-88348013D01*
X180293439Y-88930210D01*
X180290000Y-88965124D01*
X180290001Y-117034877D01*
X180293125Y-117066601D01*
X180292995Y-117085293D01*
X180293962Y-117095159D01*
X180355163Y-117677449D01*
X180368104Y-117740493D01*
X180380161Y-117803697D01*
X180383025Y-117813179D01*
X180383026Y-117813186D01*
X180383029Y-117813192D01*
X180556164Y-118372501D01*
X180581093Y-118431805D01*
X180605206Y-118491487D01*
X180609860Y-118500239D01*
X180873000Y-118986908D01*
X180873000Y-125290000D01*
X113034721Y-125290000D01*
X112555867Y-125243048D01*
X112128647Y-125114063D01*
X111734616Y-124904554D01*
X111388786Y-124622501D01*
X111104328Y-124278651D01*
X110892073Y-123886093D01*
X110760109Y-123459788D01*
X110710000Y-122983036D01*
X110710000Y-122814344D01*
X111115000Y-122814344D01*
X111115000Y-123185656D01*
X111187439Y-123549834D01*
X111329534Y-123892882D01*
X111535825Y-124201618D01*
X111798382Y-124464175D01*
X112107118Y-124670466D01*
X112450166Y-124812561D01*
X112814344Y-124885000D01*
X113185656Y-124885000D01*
X113549834Y-124812561D01*
X113892882Y-124670466D01*
X114201618Y-124464175D01*
X114464175Y-124201618D01*
X114670466Y-123892882D01*
X114812561Y-123549834D01*
X114885000Y-123185656D01*
X114885000Y-122814344D01*
X114812561Y-122450166D01*
X114670466Y-122107118D01*
X114464175Y-121798382D01*
X114201618Y-121535825D01*
X113892882Y-121329534D01*
X113549834Y-121187439D01*
X113185656Y-121115000D01*
X112814344Y-121115000D01*
X112450166Y-121187439D01*
X112107118Y-121329534D01*
X111798382Y-121535825D01*
X111535825Y-121798382D01*
X111329534Y-122107118D01*
X111187439Y-122450166D01*
X111115000Y-122814344D01*
X110710000Y-122814344D01*
X110710000Y-87613740D01*
X111015000Y-87613740D01*
X111015000Y-87906260D01*
X111072068Y-88193158D01*
X111184010Y-88463411D01*
X111346525Y-88706632D01*
X111553368Y-88913475D01*
X111727760Y-89030000D01*
X111553368Y-89146525D01*
X111346525Y-89353368D01*
X111184010Y-89596589D01*
X111072068Y-89866842D01*
X111015000Y-90153740D01*
X111015000Y-90446260D01*
X111072068Y-90733158D01*
X111184010Y-91003411D01*
X111346525Y-91246632D01*
X111553368Y-91453475D01*
X111727760Y-91570000D01*
X111553368Y-91686525D01*
X111346525Y-91893368D01*
X111184010Y-92136589D01*
X111072068Y-92406842D01*
X111015000Y-92693740D01*
X111015000Y-92986260D01*
X111072068Y-93273158D01*
X111184010Y-93543411D01*
X111346525Y-93786632D01*
X111553368Y-93993475D01*
X111727760Y-94110000D01*
X111553368Y-94226525D01*
X111346525Y-94433368D01*
X111184010Y-94676589D01*
X111072068Y-94946842D01*
X111015000Y-95233740D01*
X111015000Y-95526260D01*
X111072068Y-95813158D01*
X111184010Y-96083411D01*
X111346525Y-96326632D01*
X111553368Y-96533475D01*
X111727760Y-96650000D01*
X111553368Y-96766525D01*
X111346525Y-96973368D01*
X111184010Y-97216589D01*
X111072068Y-97486842D01*
X111015000Y-97773740D01*
X111015000Y-98066260D01*
X111072068Y-98353158D01*
X111184010Y-98623411D01*
X111346525Y-98866632D01*
X111553368Y-99073475D01*
X111727760Y-99190000D01*
X111553368Y-99306525D01*
X111346525Y-99513368D01*
X111184010Y-99756589D01*
X111072068Y-100026842D01*
X111015000Y-100313740D01*
X111015000Y-100606260D01*
X111072068Y-100893158D01*
X111184010Y-101163411D01*
X111346525Y-101406632D01*
X111553368Y-101613475D01*
X111727760Y-101730000D01*
X111553368Y-101846525D01*
X111346525Y-102053368D01*
X111184010Y-102296589D01*
X111072068Y-102566842D01*
X111015000Y-102853740D01*
X111015000Y-103146260D01*
X111072068Y-103433158D01*
X111184010Y-103703411D01*
X111346525Y-103946632D01*
X111553368Y-104153475D01*
X111727760Y-104270000D01*
X111553368Y-104386525D01*
X111346525Y-104593368D01*
X111184010Y-104836589D01*
X111072068Y-105106842D01*
X111015000Y-105393740D01*
X111015000Y-105686260D01*
X111072068Y-105973158D01*
X111184010Y-106243411D01*
X111346525Y-106486632D01*
X111553368Y-106693475D01*
X111727760Y-106810000D01*
X111553368Y-106926525D01*
X111346525Y-107133368D01*
X111184010Y-107376589D01*
X111072068Y-107646842D01*
X111015000Y-107933740D01*
X111015000Y-108226260D01*
X111072068Y-108513158D01*
X111184010Y-108783411D01*
X111346525Y-109026632D01*
X111553368Y-109233475D01*
X111727760Y-109350000D01*
X111553368Y-109466525D01*
X111346525Y-109673368D01*
X111184010Y-109916589D01*
X111072068Y-110186842D01*
X111015000Y-110473740D01*
X111015000Y-110766260D01*
X111072068Y-111053158D01*
X111184010Y-111323411D01*
X111346525Y-111566632D01*
X111553368Y-111773475D01*
X111727760Y-111890000D01*
X111553368Y-112006525D01*
X111346525Y-112213368D01*
X111184010Y-112456589D01*
X111072068Y-112726842D01*
X111015000Y-113013740D01*
X111015000Y-113306260D01*
X111072068Y-113593158D01*
X111184010Y-113863411D01*
X111346525Y-114106632D01*
X111553368Y-114313475D01*
X111727760Y-114430000D01*
X111553368Y-114546525D01*
X111346525Y-114753368D01*
X111184010Y-114996589D01*
X111072068Y-115266842D01*
X111015000Y-115553740D01*
X111015000Y-115846260D01*
X111072068Y-116133158D01*
X111184010Y-116403411D01*
X111346525Y-116646632D01*
X111553368Y-116853475D01*
X111727760Y-116970000D01*
X111553368Y-117086525D01*
X111346525Y-117293368D01*
X111184010Y-117536589D01*
X111072068Y-117806842D01*
X111015000Y-118093740D01*
X111015000Y-118386260D01*
X111072068Y-118673158D01*
X111184010Y-118943411D01*
X111346525Y-119186632D01*
X111553368Y-119393475D01*
X111796589Y-119555990D01*
X112066842Y-119667932D01*
X112353740Y-119725000D01*
X112646260Y-119725000D01*
X112933158Y-119667932D01*
X113203411Y-119555990D01*
X113446632Y-119393475D01*
X113653475Y-119186632D01*
X113770000Y-119012240D01*
X113886525Y-119186632D01*
X114093368Y-119393475D01*
X114336589Y-119555990D01*
X114606842Y-119667932D01*
X114893740Y-119725000D01*
X115186260Y-119725000D01*
X115473158Y-119667932D01*
X115743411Y-119555990D01*
X115986632Y-119393475D01*
X116193475Y-119186632D01*
X116310000Y-119012240D01*
X116426525Y-119186632D01*
X116633368Y-119393475D01*
X116807760Y-119510000D01*
X116633368Y-119626525D01*
X116426525Y-119833368D01*
X116264010Y-120076589D01*
X116152068Y-120346842D01*
X116095000Y-120633740D01*
X116095000Y-120926260D01*
X116152068Y-121213158D01*
X116264010Y-121483411D01*
X116426525Y-121726632D01*
X116633368Y-121933475D01*
X116807760Y-122050000D01*
X116633368Y-122166525D01*
X116426525Y-122373368D01*
X116264010Y-122616589D01*
X116152068Y-122886842D01*
X116095000Y-123173740D01*
X116095000Y-123466260D01*
X116152068Y-123753158D01*
X116264010Y-124023411D01*
X116426525Y-124266632D01*
X116633368Y-124473475D01*
X116876589Y-124635990D01*
X117146842Y-124747932D01*
X117433740Y-124805000D01*
X117726260Y-124805000D01*
X118013158Y-124747932D01*
X118283411Y-124635990D01*
X118526632Y-124473475D01*
X118733475Y-124266632D01*
X118850000Y-124092240D01*
X118966525Y-124266632D01*
X119173368Y-124473475D01*
X119416589Y-124635990D01*
X119686842Y-124747932D01*
X119973740Y-124805000D01*
X120266260Y-124805000D01*
X120553158Y-124747932D01*
X120823411Y-124635990D01*
X121066632Y-124473475D01*
X121273475Y-124266632D01*
X121390000Y-124092240D01*
X121506525Y-124266632D01*
X121713368Y-124473475D01*
X121956589Y-124635990D01*
X122226842Y-124747932D01*
X122513740Y-124805000D01*
X122806260Y-124805000D01*
X123093158Y-124747932D01*
X123363411Y-124635990D01*
X123606632Y-124473475D01*
X123813475Y-124266632D01*
X123930000Y-124092240D01*
X124046525Y-124266632D01*
X124253368Y-124473475D01*
X124496589Y-124635990D01*
X124766842Y-124747932D01*
X125053740Y-124805000D01*
X125346260Y-124805000D01*
X125633158Y-124747932D01*
X125903411Y-124635990D01*
X126146632Y-124473475D01*
X126353475Y-124266632D01*
X126470000Y-124092240D01*
X126586525Y-124266632D01*
X126793368Y-124473475D01*
X127036589Y-124635990D01*
X127306842Y-124747932D01*
X127593740Y-124805000D01*
X127886260Y-124805000D01*
X128173158Y-124747932D01*
X128443411Y-124635990D01*
X128686632Y-124473475D01*
X128893475Y-124266632D01*
X129010000Y-124092240D01*
X129126525Y-124266632D01*
X129333368Y-124473475D01*
X129576589Y-124635990D01*
X129846842Y-124747932D01*
X130133740Y-124805000D01*
X130426260Y-124805000D01*
X130713158Y-124747932D01*
X130983411Y-124635990D01*
X131226632Y-124473475D01*
X131433475Y-124266632D01*
X131550000Y-124092240D01*
X131666525Y-124266632D01*
X131873368Y-124473475D01*
X132116589Y-124635990D01*
X132386842Y-124747932D01*
X132673740Y-124805000D01*
X132966260Y-124805000D01*
X133253158Y-124747932D01*
X133523411Y-124635990D01*
X133766632Y-124473475D01*
X133973475Y-124266632D01*
X134090000Y-124092240D01*
X134206525Y-124266632D01*
X134413368Y-124473475D01*
X134656589Y-124635990D01*
X134926842Y-124747932D01*
X135213740Y-124805000D01*
X135506260Y-124805000D01*
X135793158Y-124747932D01*
X136063411Y-124635990D01*
X136306632Y-124473475D01*
X136513475Y-124266632D01*
X136630000Y-124092240D01*
X136746525Y-124266632D01*
X136953368Y-124473475D01*
X137196589Y-124635990D01*
X137466842Y-124747932D01*
X137753740Y-124805000D01*
X138046260Y-124805000D01*
X138333158Y-124747932D01*
X138603411Y-124635990D01*
X138846632Y-124473475D01*
X139053475Y-124266632D01*
X139170000Y-124092240D01*
X139286525Y-124266632D01*
X139493368Y-124473475D01*
X139736589Y-124635990D01*
X140006842Y-124747932D01*
X140293740Y-124805000D01*
X140586260Y-124805000D01*
X140873158Y-124747932D01*
X141143411Y-124635990D01*
X141386632Y-124473475D01*
X141593475Y-124266632D01*
X141710000Y-124092240D01*
X141826525Y-124266632D01*
X142033368Y-124473475D01*
X142276589Y-124635990D01*
X142546842Y-124747932D01*
X142833740Y-124805000D01*
X143126260Y-124805000D01*
X143413158Y-124747932D01*
X143683411Y-124635990D01*
X143926632Y-124473475D01*
X144133475Y-124266632D01*
X144250000Y-124092240D01*
X144366525Y-124266632D01*
X144573368Y-124473475D01*
X144816589Y-124635990D01*
X145086842Y-124747932D01*
X145373740Y-124805000D01*
X145666260Y-124805000D01*
X145953158Y-124747932D01*
X146223411Y-124635990D01*
X146466632Y-124473475D01*
X146673475Y-124266632D01*
X146790000Y-124092240D01*
X146906525Y-124266632D01*
X147113368Y-124473475D01*
X147356589Y-124635990D01*
X147626842Y-124747932D01*
X147913740Y-124805000D01*
X148206260Y-124805000D01*
X148493158Y-124747932D01*
X148763411Y-124635990D01*
X149006632Y-124473475D01*
X149213475Y-124266632D01*
X149254656Y-124205000D01*
X149476531Y-124205000D01*
X149520000Y-124209281D01*
X149563469Y-124205000D01*
X149563477Y-124205000D01*
X149693490Y-124192195D01*
X149860313Y-124141589D01*
X150014059Y-124059411D01*
X150148817Y-123948817D01*
X150176534Y-123915044D01*
X152685049Y-121406530D01*
X152718817Y-121378817D01*
X152829411Y-121244059D01*
X152911589Y-121090313D01*
X152962195Y-120923490D01*
X152975000Y-120793477D01*
X152975000Y-120793469D01*
X152979281Y-120750000D01*
X152975000Y-120706531D01*
X152975000Y-113207044D01*
X153223409Y-113041063D01*
X153367112Y-112897360D01*
X171352245Y-112897360D01*
X171465264Y-113176384D01*
X171779249Y-113331556D01*
X172117473Y-113422491D01*
X172466938Y-113445694D01*
X172814216Y-113400275D01*
X173145960Y-113287977D01*
X173354736Y-113176384D01*
X173467755Y-112897360D01*
X172410000Y-111839605D01*
X171352245Y-112897360D01*
X153367112Y-112897360D01*
X153471063Y-112793409D01*
X153665643Y-112502199D01*
X153799672Y-112178623D01*
X153868000Y-111835118D01*
X153868000Y-111716938D01*
X170624306Y-111716938D01*
X170669725Y-112064216D01*
X170782023Y-112395960D01*
X170893616Y-112604736D01*
X171172640Y-112717755D01*
X172230395Y-111660000D01*
X172589605Y-111660000D01*
X173647360Y-112717755D01*
X173926384Y-112604736D01*
X174081556Y-112290751D01*
X174172491Y-111952527D01*
X174195694Y-111603062D01*
X174150275Y-111255784D01*
X174037977Y-110924040D01*
X173926384Y-110715264D01*
X173647360Y-110602245D01*
X172589605Y-111660000D01*
X172230395Y-111660000D01*
X171172640Y-110602245D01*
X170893616Y-110715264D01*
X170738444Y-111029249D01*
X170647509Y-111367473D01*
X170624306Y-111716938D01*
X153868000Y-111716938D01*
X153868000Y-111484882D01*
X153799672Y-111141377D01*
X153665643Y-110817801D01*
X153471063Y-110526591D01*
X153367112Y-110422640D01*
X171352245Y-110422640D01*
X172410000Y-111480395D01*
X173467755Y-110422640D01*
X173354736Y-110143616D01*
X173040751Y-109988444D01*
X172702527Y-109897509D01*
X172353062Y-109874306D01*
X172005784Y-109919725D01*
X171674040Y-110032023D01*
X171465264Y-110143616D01*
X171352245Y-110422640D01*
X153367112Y-110422640D01*
X153223409Y-110278937D01*
X152932199Y-110084357D01*
X152608623Y-109950328D01*
X152265118Y-109882000D01*
X151914882Y-109882000D01*
X151571377Y-109950328D01*
X151247801Y-110084357D01*
X150956591Y-110278937D01*
X150708937Y-110526591D01*
X150514357Y-110817801D01*
X150380328Y-111141377D01*
X150312000Y-111484882D01*
X150312000Y-111835118D01*
X150380328Y-112178623D01*
X150514357Y-112502199D01*
X150708937Y-112793409D01*
X150956591Y-113041063D01*
X151205000Y-113207044D01*
X151205001Y-120383420D01*
X149214107Y-122374314D01*
X149213475Y-122373368D01*
X149006632Y-122166525D01*
X148832240Y-122050000D01*
X149006632Y-121933475D01*
X149213475Y-121726632D01*
X149375990Y-121483411D01*
X149487932Y-121213158D01*
X149545000Y-120926260D01*
X149545000Y-120633740D01*
X149487932Y-120346842D01*
X149375990Y-120076589D01*
X149213475Y-119833368D01*
X149006632Y-119626525D01*
X148832240Y-119510000D01*
X149006632Y-119393475D01*
X149213475Y-119186632D01*
X149375990Y-118943411D01*
X149487932Y-118673158D01*
X149545000Y-118386260D01*
X149545000Y-118093740D01*
X149487932Y-117806842D01*
X149375990Y-117536589D01*
X149213475Y-117293368D01*
X149006632Y-117086525D01*
X148832240Y-116970000D01*
X149006632Y-116853475D01*
X149213475Y-116646632D01*
X149375990Y-116403411D01*
X149487932Y-116133158D01*
X149545000Y-115846260D01*
X149545000Y-115553740D01*
X149487932Y-115266842D01*
X149375990Y-114996589D01*
X149213475Y-114753368D01*
X149006632Y-114546525D01*
X148832240Y-114430000D01*
X149006632Y-114313475D01*
X149213475Y-114106632D01*
X149375990Y-113863411D01*
X149487932Y-113593158D01*
X149545000Y-113306260D01*
X149545000Y-113013740D01*
X149487932Y-112726842D01*
X149375990Y-112456589D01*
X149213475Y-112213368D01*
X149006632Y-112006525D01*
X148832240Y-111890000D01*
X149006632Y-111773475D01*
X149213475Y-111566632D01*
X149375990Y-111323411D01*
X149487932Y-111053158D01*
X149545000Y-110766260D01*
X149545000Y-110473740D01*
X149487932Y-110186842D01*
X149375990Y-109916589D01*
X149213475Y-109673368D01*
X149006632Y-109466525D01*
X148832240Y-109350000D01*
X149006632Y-109233475D01*
X149213475Y-109026632D01*
X149375990Y-108783411D01*
X149487932Y-108513158D01*
X149545000Y-108226260D01*
X149545000Y-107933740D01*
X149487932Y-107646842D01*
X149375990Y-107376589D01*
X149213475Y-107133368D01*
X149006632Y-106926525D01*
X148832240Y-106810000D01*
X149006632Y-106693475D01*
X149213475Y-106486632D01*
X149375990Y-106243411D01*
X149487932Y-105973158D01*
X149545000Y-105686260D01*
X149545000Y-105393740D01*
X149487932Y-105106842D01*
X149375990Y-104836589D01*
X149213475Y-104593368D01*
X149006632Y-104386525D01*
X148832240Y-104270000D01*
X149006632Y-104153475D01*
X149213475Y-103946632D01*
X149375990Y-103703411D01*
X149487932Y-103433158D01*
X149545000Y-103146260D01*
X149545000Y-102853740D01*
X149487932Y-102566842D01*
X149375990Y-102296589D01*
X149213475Y-102053368D01*
X149006632Y-101846525D01*
X148832240Y-101730000D01*
X149006632Y-101613475D01*
X149213475Y-101406632D01*
X149375990Y-101163411D01*
X149487932Y-100893158D01*
X149545000Y-100606260D01*
X149545000Y-100313740D01*
X149487932Y-100026842D01*
X149375990Y-99756589D01*
X149213475Y-99513368D01*
X149006632Y-99306525D01*
X148832240Y-99190000D01*
X149006632Y-99073475D01*
X149213475Y-98866632D01*
X149375990Y-98623411D01*
X149487932Y-98353158D01*
X149545000Y-98066260D01*
X149545000Y-97773740D01*
X149487932Y-97486842D01*
X149375990Y-97216589D01*
X149213475Y-96973368D01*
X149006632Y-96766525D01*
X148832240Y-96650000D01*
X149006632Y-96533475D01*
X149213475Y-96326632D01*
X149375990Y-96083411D01*
X149487932Y-95813158D01*
X149545000Y-95526260D01*
X149545000Y-95233740D01*
X149487932Y-94946842D01*
X149375990Y-94676589D01*
X149213475Y-94433368D01*
X149006632Y-94226525D01*
X148832240Y-94110000D01*
X149006632Y-93993475D01*
X149213475Y-93786632D01*
X149375990Y-93543411D01*
X149487932Y-93273158D01*
X149545000Y-92986260D01*
X149545000Y-92693740D01*
X149487932Y-92406842D01*
X149453224Y-92323049D01*
X164465000Y-92323049D01*
X164465000Y-92526927D01*
X164504774Y-92726886D01*
X164582795Y-92915244D01*
X164696063Y-93084762D01*
X164840226Y-93228925D01*
X165009744Y-93342193D01*
X165198102Y-93420214D01*
X165398061Y-93459988D01*
X165601939Y-93459988D01*
X165801898Y-93420214D01*
X165990256Y-93342193D01*
X166159774Y-93228925D01*
X166303937Y-93084762D01*
X166417205Y-92915244D01*
X166495226Y-92726886D01*
X166535000Y-92526927D01*
X166535000Y-92323049D01*
X166495226Y-92123090D01*
X166417205Y-91934732D01*
X166385050Y-91886609D01*
X166385050Y-88138454D01*
X166417255Y-88090256D01*
X166495276Y-87901898D01*
X166535050Y-87701939D01*
X166535050Y-87498061D01*
X166495276Y-87298102D01*
X166417255Y-87109744D01*
X166303987Y-86940226D01*
X166159824Y-86796063D01*
X165990306Y-86682795D01*
X165801948Y-86604774D01*
X165601989Y-86565000D01*
X165398111Y-86565000D01*
X165198152Y-86604774D01*
X165009794Y-86682795D01*
X164840276Y-86796063D01*
X164696113Y-86940226D01*
X164582845Y-87109744D01*
X164504824Y-87298102D01*
X164465050Y-87498061D01*
X164465050Y-87701939D01*
X164504824Y-87901898D01*
X164582845Y-88090256D01*
X164615050Y-88138454D01*
X164615051Y-91886458D01*
X164582795Y-91934732D01*
X164504774Y-92123090D01*
X164465000Y-92323049D01*
X149453224Y-92323049D01*
X149375990Y-92136589D01*
X149213475Y-91893368D01*
X149006632Y-91686525D01*
X148832240Y-91570000D01*
X149006632Y-91453475D01*
X149213475Y-91246632D01*
X149375990Y-91003411D01*
X149487932Y-90733158D01*
X149545000Y-90446260D01*
X149545000Y-90153740D01*
X149487932Y-89866842D01*
X149375990Y-89596589D01*
X149213475Y-89353368D01*
X149006632Y-89146525D01*
X148832240Y-89030000D01*
X149006632Y-88913475D01*
X149213475Y-88706632D01*
X149375990Y-88463411D01*
X149487932Y-88193158D01*
X149545000Y-87906260D01*
X149545000Y-87613740D01*
X149487932Y-87326842D01*
X149375990Y-87056589D01*
X149213475Y-86813368D01*
X149006632Y-86606525D01*
X148832240Y-86490000D01*
X149006632Y-86373475D01*
X149213475Y-86166632D01*
X149375990Y-85923411D01*
X149487932Y-85653158D01*
X149545000Y-85366260D01*
X149545000Y-85073740D01*
X149542267Y-85060002D01*
X149701939Y-85060002D01*
X149901898Y-85020228D01*
X150090256Y-84942207D01*
X150259774Y-84828939D01*
X150303711Y-84785002D01*
X150435201Y-84785002D01*
X153315554Y-87665356D01*
X153241182Y-87776662D01*
X153163161Y-87965020D01*
X153123387Y-88164979D01*
X153123387Y-88368857D01*
X153163161Y-88568816D01*
X153241182Y-88757174D01*
X153354450Y-88926692D01*
X153498613Y-89070855D01*
X153668131Y-89184123D01*
X153856489Y-89262144D01*
X154056448Y-89301918D01*
X154260326Y-89301918D01*
X154460285Y-89262144D01*
X154569582Y-89216872D01*
X154578972Y-89226262D01*
X154732111Y-89328586D01*
X154902271Y-89399068D01*
X154911651Y-89400934D01*
X154925932Y-89472729D01*
X154996414Y-89642889D01*
X155098738Y-89796028D01*
X155228972Y-89926262D01*
X155382111Y-90028586D01*
X155552271Y-90099068D01*
X155561651Y-90100934D01*
X155575932Y-90172729D01*
X155646414Y-90342889D01*
X155748738Y-90496028D01*
X155878972Y-90626262D01*
X156032111Y-90728586D01*
X156202271Y-90799068D01*
X156382911Y-90835000D01*
X156567089Y-90835000D01*
X156747729Y-90799068D01*
X156917889Y-90728586D01*
X157071028Y-90626262D01*
X157201262Y-90496028D01*
X157303586Y-90342889D01*
X157374068Y-90172729D01*
X157410000Y-89992089D01*
X157410000Y-89807911D01*
X157374068Y-89627271D01*
X157303586Y-89457111D01*
X157235000Y-89354465D01*
X157235000Y-85845535D01*
X157303586Y-85742889D01*
X157374068Y-85572729D01*
X157410000Y-85392089D01*
X157410000Y-85207911D01*
X157374068Y-85027271D01*
X157303586Y-84857111D01*
X157201262Y-84703972D01*
X157071028Y-84573738D01*
X156917889Y-84471414D01*
X156747729Y-84400932D01*
X156664914Y-84384459D01*
X156653586Y-84357111D01*
X156551262Y-84203972D01*
X156421028Y-84073738D01*
X156267889Y-83971414D01*
X156097729Y-83900932D01*
X155917089Y-83865000D01*
X155732911Y-83865000D01*
X155552271Y-83900932D01*
X155382111Y-83971414D01*
X155228972Y-84073738D01*
X155098738Y-84203972D01*
X154996414Y-84357111D01*
X154985086Y-84384459D01*
X154902271Y-84400932D01*
X154732111Y-84471414D01*
X154578972Y-84573738D01*
X154448738Y-84703972D01*
X154346414Y-84857111D01*
X154275932Y-85027271D01*
X154240000Y-85207911D01*
X154240000Y-85392089D01*
X154275932Y-85572729D01*
X154346414Y-85742889D01*
X154415000Y-85845536D01*
X154415000Y-86615199D01*
X151313806Y-83514005D01*
X151290003Y-83485001D01*
X151174278Y-83390028D01*
X151042249Y-83319456D01*
X150898988Y-83275999D01*
X150787335Y-83265002D01*
X150787324Y-83265002D01*
X150750002Y-83261326D01*
X150712680Y-83265002D01*
X150303711Y-83265002D01*
X150259774Y-83221065D01*
X150090256Y-83107797D01*
X149901898Y-83029776D01*
X149701939Y-82990002D01*
X149513405Y-82990002D01*
X149535339Y-82903589D01*
X149550611Y-82611469D01*
X149508599Y-82321981D01*
X149410919Y-82046253D01*
X149337472Y-81908843D01*
X149088397Y-81831208D01*
X148239605Y-82680000D01*
X148253748Y-82694143D01*
X148074143Y-82873748D01*
X148060000Y-82859605D01*
X147211208Y-83708397D01*
X147286729Y-83950689D01*
X147113368Y-84066525D01*
X146906525Y-84273368D01*
X146790000Y-84447760D01*
X146673475Y-84273368D01*
X146466632Y-84066525D01*
X146293271Y-83950689D01*
X146368792Y-83708397D01*
X145520000Y-82859605D01*
X144671208Y-83708397D01*
X144746729Y-83950689D01*
X144573368Y-84066525D01*
X144366525Y-84273368D01*
X144250000Y-84447760D01*
X144133475Y-84273368D01*
X143926632Y-84066525D01*
X143753271Y-83950689D01*
X143828792Y-83708397D01*
X142980000Y-82859605D01*
X142131208Y-83708397D01*
X142206729Y-83950689D01*
X142033368Y-84066525D01*
X141826525Y-84273368D01*
X141710000Y-84447760D01*
X141593475Y-84273368D01*
X141386632Y-84066525D01*
X141213271Y-83950689D01*
X141288792Y-83708397D01*
X140440000Y-82859605D01*
X139591208Y-83708397D01*
X139666729Y-83950689D01*
X139493368Y-84066525D01*
X139286525Y-84273368D01*
X139170000Y-84447760D01*
X139053475Y-84273368D01*
X138846632Y-84066525D01*
X138673271Y-83950689D01*
X138748792Y-83708397D01*
X137900000Y-82859605D01*
X137051208Y-83708397D01*
X137126729Y-83950689D01*
X136953368Y-84066525D01*
X136746525Y-84273368D01*
X136630000Y-84447760D01*
X136513475Y-84273368D01*
X136306632Y-84066525D01*
X136132240Y-83950000D01*
X136306632Y-83833475D01*
X136513475Y-83626632D01*
X136629311Y-83453271D01*
X136871603Y-83528792D01*
X137720395Y-82680000D01*
X138079605Y-82680000D01*
X138928397Y-83528792D01*
X139170000Y-83453486D01*
X139411603Y-83528792D01*
X140260395Y-82680000D01*
X140619605Y-82680000D01*
X141468397Y-83528792D01*
X141710000Y-83453486D01*
X141951603Y-83528792D01*
X142800395Y-82680000D01*
X143159605Y-82680000D01*
X144008397Y-83528792D01*
X144250000Y-83453486D01*
X144491603Y-83528792D01*
X145340395Y-82680000D01*
X145699605Y-82680000D01*
X146548397Y-83528792D01*
X146790000Y-83453486D01*
X147031603Y-83528792D01*
X147880395Y-82680000D01*
X147031603Y-81831208D01*
X146790000Y-81906514D01*
X146548397Y-81831208D01*
X145699605Y-82680000D01*
X145340395Y-82680000D01*
X144491603Y-81831208D01*
X144250000Y-81906514D01*
X144008397Y-81831208D01*
X143159605Y-82680000D01*
X142800395Y-82680000D01*
X141951603Y-81831208D01*
X141710000Y-81906514D01*
X141468397Y-81831208D01*
X140619605Y-82680000D01*
X140260395Y-82680000D01*
X139411603Y-81831208D01*
X139170000Y-81906514D01*
X138928397Y-81831208D01*
X138079605Y-82680000D01*
X137720395Y-82680000D01*
X136871603Y-81831208D01*
X136629311Y-81906729D01*
X136513475Y-81733368D01*
X136431710Y-81651603D01*
X137051208Y-81651603D01*
X137900000Y-82500395D01*
X138748792Y-81651603D01*
X139591208Y-81651603D01*
X140440000Y-82500395D01*
X141288792Y-81651603D01*
X142131208Y-81651603D01*
X142980000Y-82500395D01*
X143828792Y-81651603D01*
X144671208Y-81651603D01*
X145520000Y-82500395D01*
X146368792Y-81651603D01*
X147211208Y-81651603D01*
X148060000Y-82500395D01*
X148908792Y-81651603D01*
X148831157Y-81402528D01*
X148567117Y-81276629D01*
X148283589Y-81204661D01*
X147991469Y-81189389D01*
X147701981Y-81231401D01*
X147426253Y-81329081D01*
X147288843Y-81402528D01*
X147211208Y-81651603D01*
X146368792Y-81651603D01*
X146291157Y-81402528D01*
X146027117Y-81276629D01*
X145743589Y-81204661D01*
X145451469Y-81189389D01*
X145161981Y-81231401D01*
X144886253Y-81329081D01*
X144748843Y-81402528D01*
X144671208Y-81651603D01*
X143828792Y-81651603D01*
X143751157Y-81402528D01*
X143487117Y-81276629D01*
X143203589Y-81204661D01*
X142911469Y-81189389D01*
X142621981Y-81231401D01*
X142346253Y-81329081D01*
X142208843Y-81402528D01*
X142131208Y-81651603D01*
X141288792Y-81651603D01*
X141211157Y-81402528D01*
X140947117Y-81276629D01*
X140663589Y-81204661D01*
X140371469Y-81189389D01*
X140081981Y-81231401D01*
X139806253Y-81329081D01*
X139668843Y-81402528D01*
X139591208Y-81651603D01*
X138748792Y-81651603D01*
X138671157Y-81402528D01*
X138407117Y-81276629D01*
X138123589Y-81204661D01*
X137831469Y-81189389D01*
X137541981Y-81231401D01*
X137266253Y-81329081D01*
X137128843Y-81402528D01*
X137051208Y-81651603D01*
X136431710Y-81651603D01*
X136306632Y-81526525D01*
X136063411Y-81364010D01*
X135793158Y-81252068D01*
X135506260Y-81195000D01*
X135213740Y-81195000D01*
X134926842Y-81252068D01*
X134656589Y-81364010D01*
X134413368Y-81526525D01*
X134206525Y-81733368D01*
X134090000Y-81907760D01*
X133973475Y-81733368D01*
X133766632Y-81526525D01*
X133523411Y-81364010D01*
X133253158Y-81252068D01*
X132966260Y-81195000D01*
X132673740Y-81195000D01*
X132386842Y-81252068D01*
X132116589Y-81364010D01*
X131873368Y-81526525D01*
X131666525Y-81733368D01*
X131550000Y-81907760D01*
X131433475Y-81733368D01*
X131226632Y-81526525D01*
X130983411Y-81364010D01*
X130713158Y-81252068D01*
X130426260Y-81195000D01*
X130133740Y-81195000D01*
X129846842Y-81252068D01*
X129576589Y-81364010D01*
X129333368Y-81526525D01*
X129126525Y-81733368D01*
X129010000Y-81907760D01*
X128893475Y-81733368D01*
X128686632Y-81526525D01*
X128443411Y-81364010D01*
X128173158Y-81252068D01*
X127886260Y-81195000D01*
X127593740Y-81195000D01*
X127306842Y-81252068D01*
X127036589Y-81364010D01*
X126793368Y-81526525D01*
X126586525Y-81733368D01*
X126470000Y-81907760D01*
X126353475Y-81733368D01*
X126146632Y-81526525D01*
X125903411Y-81364010D01*
X125633158Y-81252068D01*
X125346260Y-81195000D01*
X125053740Y-81195000D01*
X124766842Y-81252068D01*
X124496589Y-81364010D01*
X124253368Y-81526525D01*
X124046525Y-81733368D01*
X123930000Y-81907760D01*
X123813475Y-81733368D01*
X123606632Y-81526525D01*
X123363411Y-81364010D01*
X123093158Y-81252068D01*
X122806260Y-81195000D01*
X122513740Y-81195000D01*
X122226842Y-81252068D01*
X121956589Y-81364010D01*
X121713368Y-81526525D01*
X121506525Y-81733368D01*
X121390000Y-81907760D01*
X121273475Y-81733368D01*
X121066632Y-81526525D01*
X120823411Y-81364010D01*
X120553158Y-81252068D01*
X120266260Y-81195000D01*
X119973740Y-81195000D01*
X119686842Y-81252068D01*
X119416589Y-81364010D01*
X119173368Y-81526525D01*
X118966525Y-81733368D01*
X118850000Y-81907760D01*
X118733475Y-81733368D01*
X118526632Y-81526525D01*
X118283411Y-81364010D01*
X118013158Y-81252068D01*
X117726260Y-81195000D01*
X117433740Y-81195000D01*
X117146842Y-81252068D01*
X116876589Y-81364010D01*
X116633368Y-81526525D01*
X116426525Y-81733368D01*
X116264010Y-81976589D01*
X116152068Y-82246842D01*
X116095000Y-82533740D01*
X116095000Y-82826260D01*
X116152068Y-83113158D01*
X116264010Y-83383411D01*
X116426525Y-83626632D01*
X116633368Y-83833475D01*
X116807760Y-83950000D01*
X116633368Y-84066525D01*
X116426525Y-84273368D01*
X116264010Y-84516589D01*
X116152068Y-84786842D01*
X116095000Y-85073740D01*
X116095000Y-85366260D01*
X116152068Y-85653158D01*
X116264010Y-85923411D01*
X116426525Y-86166632D01*
X116633368Y-86373475D01*
X116807760Y-86490000D01*
X116633368Y-86606525D01*
X116426525Y-86813368D01*
X116310000Y-86987760D01*
X116193475Y-86813368D01*
X115986632Y-86606525D01*
X115743411Y-86444010D01*
X115473158Y-86332068D01*
X115186260Y-86275000D01*
X114893740Y-86275000D01*
X114606842Y-86332068D01*
X114336589Y-86444010D01*
X114093368Y-86606525D01*
X113886525Y-86813368D01*
X113770000Y-86987760D01*
X113653475Y-86813368D01*
X113446632Y-86606525D01*
X113203411Y-86444010D01*
X112933158Y-86332068D01*
X112646260Y-86275000D01*
X112353740Y-86275000D01*
X112066842Y-86332068D01*
X111796589Y-86444010D01*
X111553368Y-86606525D01*
X111346525Y-86813368D01*
X111184010Y-87056589D01*
X111072068Y-87326842D01*
X111015000Y-87613740D01*
X110710000Y-87613740D01*
X110710000Y-83034721D01*
X110731608Y-82814344D01*
X111115000Y-82814344D01*
X111115000Y-83185656D01*
X111187439Y-83549834D01*
X111329534Y-83892882D01*
X111535825Y-84201618D01*
X111798382Y-84464175D01*
X112107118Y-84670466D01*
X112450166Y-84812561D01*
X112814344Y-84885000D01*
X113185656Y-84885000D01*
X113549834Y-84812561D01*
X113892882Y-84670466D01*
X114201618Y-84464175D01*
X114464175Y-84201618D01*
X114670466Y-83892882D01*
X114812561Y-83549834D01*
X114885000Y-83185656D01*
X114885000Y-82814344D01*
X114812561Y-82450166D01*
X114670466Y-82107118D01*
X114464175Y-81798382D01*
X114201618Y-81535825D01*
X113892882Y-81329534D01*
X113549834Y-81187439D01*
X113185656Y-81115000D01*
X112814344Y-81115000D01*
X112450166Y-81187439D01*
X112107118Y-81329534D01*
X111798382Y-81535825D01*
X111535825Y-81798382D01*
X111329534Y-82107118D01*
X111187439Y-82450166D01*
X111115000Y-82814344D01*
X110731608Y-82814344D01*
X110756953Y-82555866D01*
X110885938Y-82128645D01*
X111095446Y-81734616D01*
X111377499Y-81388786D01*
X111721351Y-81104327D01*
X112113910Y-80892071D01*
X112540213Y-80760108D01*
X113016964Y-80710000D01*
X180873000Y-80710000D01*
X180873000Y-87009026D01*
G37*
G04 #@! TD.AperFunction*
M02*
